<?xml version="1.0" encoding="utf-8" standalone="no"?>
<!DOCTYPE svg PUBLIC "-//W3C//DTD SVG 1.1//EN"
  "http://www.w3.org/Graphics/SVG/1.1/DTD/svg11.dtd">
<!-- Created with matplotlib (http://matplotlib.org/) -->
<svg height="345.6pt" version="1.1" viewBox="0 0 460.8 345.6" width="460.8pt" xmlns="http://www.w3.org/2000/svg" xmlns:xlink="http://www.w3.org/1999/xlink">
 <defs>
  <style type="text/css">
*{stroke-linecap:butt;stroke-linejoin:round;}
  </style>
 </defs>
 <g id="figure_1">
  <g id="patch_1">
   <path d="M 0 345.6 
L 460.8 345.6 
L 460.8 0 
L 0 0 
z
" style="fill:#ffffff;"/>
  </g>
  <g id="axes_1">
   <g id="patch_2">
    <path d="M 57.6 307.584 
L 414.72 307.584 
L 414.72 41.472 
L 57.6 41.472 
z
" style="fill:#ffffff;"/>
   </g>
   <g id="matplotlib.axis_1">
    <g id="xtick_1">
     <g id="line2d_1">
      <defs>
       <path d="M 0 0 
L 0 3.5 
" id="m447432c47c" style="stroke:#000000;stroke-width:0.8;"/>
      </defs>
      <g>
       <use style="stroke:#000000;stroke-width:0.8;" x="73.832727" xlink:href="#m447432c47c" y="307.584"/>
      </g>
     </g>
     <g id="text_1">
      <!-- 0 -->
      <defs>
       <path d="M 31.78125 66.40625 
Q 24.171875 66.40625 20.328125 58.90625 
Q 16.5 51.421875 16.5 36.375 
Q 16.5 21.390625 20.328125 13.890625 
Q 24.171875 6.390625 31.78125 6.390625 
Q 39.453125 6.390625 43.28125 13.890625 
Q 47.125 21.390625 47.125 36.375 
Q 47.125 51.421875 43.28125 58.90625 
Q 39.453125 66.40625 31.78125 66.40625 
z
M 31.78125 74.21875 
Q 44.046875 74.21875 50.515625 64.515625 
Q 56.984375 54.828125 56.984375 36.375 
Q 56.984375 17.96875 50.515625 8.265625 
Q 44.046875 -1.421875 31.78125 -1.421875 
Q 19.53125 -1.421875 13.0625 8.265625 
Q 6.59375 17.96875 6.59375 36.375 
Q 6.59375 54.828125 13.0625 64.515625 
Q 19.53125 74.21875 31.78125 74.21875 
z
" id="DejaVuSans-30"/>
      </defs>
      <g transform="translate(70.651477 322.182437)scale(0.1 -0.1)">
       <use xlink:href="#DejaVuSans-30"/>
      </g>
     </g>
    </g>
    <g id="xtick_2">
     <g id="line2d_2">
      <g>
       <use style="stroke:#000000;stroke-width:0.8;" x="138.828632" xlink:href="#m447432c47c" y="307.584"/>
      </g>
     </g>
     <g id="text_2">
      <!-- 200 -->
      <defs>
       <path d="M 19.1875 8.296875 
L 53.609375 8.296875 
L 53.609375 0 
L 7.328125 0 
L 7.328125 8.296875 
Q 12.9375 14.109375 22.625 23.890625 
Q 32.328125 33.6875 34.8125 36.53125 
Q 39.546875 41.84375 41.421875 45.53125 
Q 43.3125 49.21875 43.3125 52.78125 
Q 43.3125 58.59375 39.234375 62.25 
Q 35.15625 65.921875 28.609375 65.921875 
Q 23.96875 65.921875 18.8125 64.3125 
Q 13.671875 62.703125 7.8125 59.421875 
L 7.8125 69.390625 
Q 13.765625 71.78125 18.9375 73 
Q 24.125 74.21875 28.421875 74.21875 
Q 39.75 74.21875 46.484375 68.546875 
Q 53.21875 62.890625 53.21875 53.421875 
Q 53.21875 48.921875 51.53125 44.890625 
Q 49.859375 40.875 45.40625 35.40625 
Q 44.1875 33.984375 37.640625 27.21875 
Q 31.109375 20.453125 19.1875 8.296875 
z
" id="DejaVuSans-32"/>
      </defs>
      <g transform="translate(129.284882 322.182437)scale(0.1 -0.1)">
       <use xlink:href="#DejaVuSans-32"/>
       <use x="63.623047" xlink:href="#DejaVuSans-30"/>
       <use x="127.246094" xlink:href="#DejaVuSans-30"/>
      </g>
     </g>
    </g>
    <g id="xtick_3">
     <g id="line2d_3">
      <g>
       <use style="stroke:#000000;stroke-width:0.8;" x="203.824537" xlink:href="#m447432c47c" y="307.584"/>
      </g>
     </g>
     <g id="text_3">
      <!-- 400 -->
      <defs>
       <path d="M 37.796875 64.3125 
L 12.890625 25.390625 
L 37.796875 25.390625 
z
M 35.203125 72.90625 
L 47.609375 72.90625 
L 47.609375 25.390625 
L 58.015625 25.390625 
L 58.015625 17.1875 
L 47.609375 17.1875 
L 47.609375 0 
L 37.796875 0 
L 37.796875 17.1875 
L 4.890625 17.1875 
L 4.890625 26.703125 
z
" id="DejaVuSans-34"/>
      </defs>
      <g transform="translate(194.280787 322.182437)scale(0.1 -0.1)">
       <use xlink:href="#DejaVuSans-34"/>
       <use x="63.623047" xlink:href="#DejaVuSans-30"/>
       <use x="127.246094" xlink:href="#DejaVuSans-30"/>
      </g>
     </g>
    </g>
    <g id="xtick_4">
     <g id="line2d_4">
      <g>
       <use style="stroke:#000000;stroke-width:0.8;" x="268.820442" xlink:href="#m447432c47c" y="307.584"/>
      </g>
     </g>
     <g id="text_4">
      <!-- 600 -->
      <defs>
       <path d="M 33.015625 40.375 
Q 26.375 40.375 22.484375 35.828125 
Q 18.609375 31.296875 18.609375 23.390625 
Q 18.609375 15.53125 22.484375 10.953125 
Q 26.375 6.390625 33.015625 6.390625 
Q 39.65625 6.390625 43.53125 10.953125 
Q 47.40625 15.53125 47.40625 23.390625 
Q 47.40625 31.296875 43.53125 35.828125 
Q 39.65625 40.375 33.015625 40.375 
z
M 52.59375 71.296875 
L 52.59375 62.3125 
Q 48.875 64.0625 45.09375 64.984375 
Q 41.3125 65.921875 37.59375 65.921875 
Q 27.828125 65.921875 22.671875 59.328125 
Q 17.53125 52.734375 16.796875 39.40625 
Q 19.671875 43.65625 24.015625 45.921875 
Q 28.375 48.1875 33.59375 48.1875 
Q 44.578125 48.1875 50.953125 41.515625 
Q 57.328125 34.859375 57.328125 23.390625 
Q 57.328125 12.15625 50.6875 5.359375 
Q 44.046875 -1.421875 33.015625 -1.421875 
Q 20.359375 -1.421875 13.671875 8.265625 
Q 6.984375 17.96875 6.984375 36.375 
Q 6.984375 53.65625 15.1875 63.9375 
Q 23.390625 74.21875 37.203125 74.21875 
Q 40.921875 74.21875 44.703125 73.484375 
Q 48.484375 72.75 52.59375 71.296875 
z
" id="DejaVuSans-36"/>
      </defs>
      <g transform="translate(259.276692 322.182437)scale(0.1 -0.1)">
       <use xlink:href="#DejaVuSans-36"/>
       <use x="63.623047" xlink:href="#DejaVuSans-30"/>
       <use x="127.246094" xlink:href="#DejaVuSans-30"/>
      </g>
     </g>
    </g>
    <g id="xtick_5">
     <g id="line2d_5">
      <g>
       <use style="stroke:#000000;stroke-width:0.8;" x="333.816347" xlink:href="#m447432c47c" y="307.584"/>
      </g>
     </g>
     <g id="text_5">
      <!-- 800 -->
      <defs>
       <path d="M 31.78125 34.625 
Q 24.75 34.625 20.71875 30.859375 
Q 16.703125 27.09375 16.703125 20.515625 
Q 16.703125 13.921875 20.71875 10.15625 
Q 24.75 6.390625 31.78125 6.390625 
Q 38.8125 6.390625 42.859375 10.171875 
Q 46.921875 13.96875 46.921875 20.515625 
Q 46.921875 27.09375 42.890625 30.859375 
Q 38.875 34.625 31.78125 34.625 
z
M 21.921875 38.8125 
Q 15.578125 40.375 12.03125 44.71875 
Q 8.5 49.078125 8.5 55.328125 
Q 8.5 64.0625 14.71875 69.140625 
Q 20.953125 74.21875 31.78125 74.21875 
Q 42.671875 74.21875 48.875 69.140625 
Q 55.078125 64.0625 55.078125 55.328125 
Q 55.078125 49.078125 51.53125 44.71875 
Q 48 40.375 41.703125 38.8125 
Q 48.828125 37.15625 52.796875 32.3125 
Q 56.78125 27.484375 56.78125 20.515625 
Q 56.78125 9.90625 50.3125 4.234375 
Q 43.84375 -1.421875 31.78125 -1.421875 
Q 19.734375 -1.421875 13.25 4.234375 
Q 6.78125 9.90625 6.78125 20.515625 
Q 6.78125 27.484375 10.78125 32.3125 
Q 14.796875 37.15625 21.921875 38.8125 
z
M 18.3125 54.390625 
Q 18.3125 48.734375 21.84375 45.5625 
Q 25.390625 42.390625 31.78125 42.390625 
Q 38.140625 42.390625 41.71875 45.5625 
Q 45.3125 48.734375 45.3125 54.390625 
Q 45.3125 60.0625 41.71875 63.234375 
Q 38.140625 66.40625 31.78125 66.40625 
Q 25.390625 66.40625 21.84375 63.234375 
Q 18.3125 60.0625 18.3125 54.390625 
z
" id="DejaVuSans-38"/>
      </defs>
      <g transform="translate(324.272597 322.182437)scale(0.1 -0.1)">
       <use xlink:href="#DejaVuSans-38"/>
       <use x="63.623047" xlink:href="#DejaVuSans-30"/>
       <use x="127.246094" xlink:href="#DejaVuSans-30"/>
      </g>
     </g>
    </g>
    <g id="xtick_6">
     <g id="line2d_6">
      <g>
       <use style="stroke:#000000;stroke-width:0.8;" x="398.812252" xlink:href="#m447432c47c" y="307.584"/>
      </g>
     </g>
     <g id="text_6">
      <!-- 1000 -->
      <defs>
       <path d="M 12.40625 8.296875 
L 28.515625 8.296875 
L 28.515625 63.921875 
L 10.984375 60.40625 
L 10.984375 69.390625 
L 28.421875 72.90625 
L 38.28125 72.90625 
L 38.28125 8.296875 
L 54.390625 8.296875 
L 54.390625 0 
L 12.40625 0 
z
" id="DejaVuSans-31"/>
      </defs>
      <g transform="translate(386.087252 322.182437)scale(0.1 -0.1)">
       <use xlink:href="#DejaVuSans-31"/>
       <use x="63.623047" xlink:href="#DejaVuSans-30"/>
       <use x="127.246094" xlink:href="#DejaVuSans-30"/>
       <use x="190.869141" xlink:href="#DejaVuSans-30"/>
      </g>
     </g>
    </g>
    <g id="text_7">
     <!-- Steps -->
     <defs>
      <path d="M 53.515625 70.515625 
L 53.515625 60.890625 
Q 47.90625 63.578125 42.921875 64.890625 
Q 37.9375 66.21875 33.296875 66.21875 
Q 25.25 66.21875 20.875 63.09375 
Q 16.5 59.96875 16.5 54.203125 
Q 16.5 49.359375 19.40625 46.890625 
Q 22.3125 44.4375 30.421875 42.921875 
L 36.375 41.703125 
Q 47.40625 39.59375 52.65625 34.296875 
Q 57.90625 29 57.90625 20.125 
Q 57.90625 9.515625 50.796875 4.046875 
Q 43.703125 -1.421875 29.984375 -1.421875 
Q 24.8125 -1.421875 18.96875 -0.25 
Q 13.140625 0.921875 6.890625 3.21875 
L 6.890625 13.375 
Q 12.890625 10.015625 18.65625 8.296875 
Q 24.421875 6.59375 29.984375 6.59375 
Q 38.421875 6.59375 43.015625 9.90625 
Q 47.609375 13.234375 47.609375 19.390625 
Q 47.609375 24.75 44.3125 27.78125 
Q 41.015625 30.8125 33.5 32.328125 
L 27.484375 33.5 
Q 16.453125 35.6875 11.515625 40.375 
Q 6.59375 45.0625 6.59375 53.421875 
Q 6.59375 63.09375 13.40625 68.65625 
Q 20.21875 74.21875 32.171875 74.21875 
Q 37.3125 74.21875 42.625 73.28125 
Q 47.953125 72.359375 53.515625 70.515625 
z
" id="DejaVuSans-53"/>
      <path d="M 18.3125 70.21875 
L 18.3125 54.6875 
L 36.8125 54.6875 
L 36.8125 47.703125 
L 18.3125 47.703125 
L 18.3125 18.015625 
Q 18.3125 11.328125 20.140625 9.421875 
Q 21.96875 7.515625 27.59375 7.515625 
L 36.8125 7.515625 
L 36.8125 0 
L 27.59375 0 
Q 17.1875 0 13.234375 3.875 
Q 9.28125 7.765625 9.28125 18.015625 
L 9.28125 47.703125 
L 2.6875 47.703125 
L 2.6875 54.6875 
L 9.28125 54.6875 
L 9.28125 70.21875 
z
" id="DejaVuSans-74"/>
      <path d="M 56.203125 29.59375 
L 56.203125 25.203125 
L 14.890625 25.203125 
Q 15.484375 15.921875 20.484375 11.0625 
Q 25.484375 6.203125 34.421875 6.203125 
Q 39.59375 6.203125 44.453125 7.46875 
Q 49.3125 8.734375 54.109375 11.28125 
L 54.109375 2.78125 
Q 49.265625 0.734375 44.1875 -0.34375 
Q 39.109375 -1.421875 33.890625 -1.421875 
Q 20.796875 -1.421875 13.15625 6.1875 
Q 5.515625 13.8125 5.515625 26.8125 
Q 5.515625 40.234375 12.765625 48.109375 
Q 20.015625 56 32.328125 56 
Q 43.359375 56 49.78125 48.890625 
Q 56.203125 41.796875 56.203125 29.59375 
z
M 47.21875 32.234375 
Q 47.125 39.59375 43.09375 43.984375 
Q 39.0625 48.390625 32.421875 48.390625 
Q 24.90625 48.390625 20.390625 44.140625 
Q 15.875 39.890625 15.1875 32.171875 
z
" id="DejaVuSans-65"/>
      <path d="M 18.109375 8.203125 
L 18.109375 -20.796875 
L 9.078125 -20.796875 
L 9.078125 54.6875 
L 18.109375 54.6875 
L 18.109375 46.390625 
Q 20.953125 51.265625 25.265625 53.625 
Q 29.59375 56 35.59375 56 
Q 45.5625 56 51.78125 48.09375 
Q 58.015625 40.1875 58.015625 27.296875 
Q 58.015625 14.40625 51.78125 6.484375 
Q 45.5625 -1.421875 35.59375 -1.421875 
Q 29.59375 -1.421875 25.265625 0.953125 
Q 20.953125 3.328125 18.109375 8.203125 
z
M 48.6875 27.296875 
Q 48.6875 37.203125 44.609375 42.84375 
Q 40.53125 48.484375 33.40625 48.484375 
Q 26.265625 48.484375 22.1875 42.84375 
Q 18.109375 37.203125 18.109375 27.296875 
Q 18.109375 17.390625 22.1875 11.75 
Q 26.265625 6.109375 33.40625 6.109375 
Q 40.53125 6.109375 44.609375 11.75 
Q 48.6875 17.390625 48.6875 27.296875 
z
" id="DejaVuSans-70"/>
      <path d="M 44.28125 53.078125 
L 44.28125 44.578125 
Q 40.484375 46.53125 36.375 47.5 
Q 32.28125 48.484375 27.875 48.484375 
Q 21.1875 48.484375 17.84375 46.4375 
Q 14.5 44.390625 14.5 40.28125 
Q 14.5 37.15625 16.890625 35.375 
Q 19.28125 33.59375 26.515625 31.984375 
L 29.59375 31.296875 
Q 39.15625 29.25 43.1875 25.515625 
Q 47.21875 21.78125 47.21875 15.09375 
Q 47.21875 7.46875 41.1875 3.015625 
Q 35.15625 -1.421875 24.609375 -1.421875 
Q 20.21875 -1.421875 15.453125 -0.5625 
Q 10.6875 0.296875 5.421875 2 
L 5.421875 11.28125 
Q 10.40625 8.6875 15.234375 7.390625 
Q 20.0625 6.109375 24.8125 6.109375 
Q 31.15625 6.109375 34.5625 8.28125 
Q 37.984375 10.453125 37.984375 14.40625 
Q 37.984375 18.0625 35.515625 20.015625 
Q 33.0625 21.96875 24.703125 23.78125 
L 21.578125 24.515625 
Q 13.234375 26.265625 9.515625 29.90625 
Q 5.8125 33.546875 5.8125 39.890625 
Q 5.8125 47.609375 11.28125 51.796875 
Q 16.75 56 26.8125 56 
Q 31.78125 56 36.171875 55.265625 
Q 40.578125 54.546875 44.28125 53.078125 
z
" id="DejaVuSans-73"/>
     </defs>
     <g transform="translate(222.170156 335.860562)scale(0.1 -0.1)">
      <use xlink:href="#DejaVuSans-53"/>
      <use x="63.476562" xlink:href="#DejaVuSans-74"/>
      <use x="102.685547" xlink:href="#DejaVuSans-65"/>
      <use x="164.208984" xlink:href="#DejaVuSans-70"/>
      <use x="227.685547" xlink:href="#DejaVuSans-73"/>
     </g>
    </g>
   </g>
   <g id="matplotlib.axis_2">
    <g id="ytick_1">
     <g id="line2d_7">
      <defs>
       <path d="M 0 0 
L -3.5 0 
" id="m2d4c716bfd" style="stroke:#000000;stroke-width:0.8;"/>
      </defs>
      <g>
       <use style="stroke:#000000;stroke-width:0.8;" x="57.6" xlink:href="#m2d4c716bfd" y="307.584"/>
      </g>
     </g>
     <g id="text_8">
      <!-- 0.0 -->
      <defs>
       <path d="M 10.6875 12.40625 
L 21 12.40625 
L 21 0 
L 10.6875 0 
z
" id="DejaVuSans-2e"/>
      </defs>
      <g transform="translate(34.696875 311.383219)scale(0.1 -0.1)">
       <use xlink:href="#DejaVuSans-30"/>
       <use x="63.623047" xlink:href="#DejaVuSans-2e"/>
       <use x="95.410156" xlink:href="#DejaVuSans-30"/>
      </g>
     </g>
    </g>
    <g id="ytick_2">
     <g id="line2d_8">
      <g>
       <use style="stroke:#000000;stroke-width:0.8;" x="57.6" xlink:href="#m2d4c716bfd" y="263.232"/>
      </g>
     </g>
     <g id="text_9">
      <!-- 0.2 -->
      <g transform="translate(34.696875 267.031219)scale(0.1 -0.1)">
       <use xlink:href="#DejaVuSans-30"/>
       <use x="63.623047" xlink:href="#DejaVuSans-2e"/>
       <use x="95.410156" xlink:href="#DejaVuSans-32"/>
      </g>
     </g>
    </g>
    <g id="ytick_3">
     <g id="line2d_9">
      <g>
       <use style="stroke:#000000;stroke-width:0.8;" x="57.6" xlink:href="#m2d4c716bfd" y="218.88"/>
      </g>
     </g>
     <g id="text_10">
      <!-- 0.4 -->
      <g transform="translate(34.696875 222.679219)scale(0.1 -0.1)">
       <use xlink:href="#DejaVuSans-30"/>
       <use x="63.623047" xlink:href="#DejaVuSans-2e"/>
       <use x="95.410156" xlink:href="#DejaVuSans-34"/>
      </g>
     </g>
    </g>
    <g id="ytick_4">
     <g id="line2d_10">
      <g>
       <use style="stroke:#000000;stroke-width:0.8;" x="57.6" xlink:href="#m2d4c716bfd" y="174.528"/>
      </g>
     </g>
     <g id="text_11">
      <!-- 0.6 -->
      <g transform="translate(34.696875 178.327219)scale(0.1 -0.1)">
       <use xlink:href="#DejaVuSans-30"/>
       <use x="63.623047" xlink:href="#DejaVuSans-2e"/>
       <use x="95.410156" xlink:href="#DejaVuSans-36"/>
      </g>
     </g>
    </g>
    <g id="ytick_5">
     <g id="line2d_11">
      <g>
       <use style="stroke:#000000;stroke-width:0.8;" x="57.6" xlink:href="#m2d4c716bfd" y="130.176"/>
      </g>
     </g>
     <g id="text_12">
      <!-- 0.8 -->
      <g transform="translate(34.696875 133.975219)scale(0.1 -0.1)">
       <use xlink:href="#DejaVuSans-30"/>
       <use x="63.623047" xlink:href="#DejaVuSans-2e"/>
       <use x="95.410156" xlink:href="#DejaVuSans-38"/>
      </g>
     </g>
    </g>
    <g id="ytick_6">
     <g id="line2d_12">
      <g>
       <use style="stroke:#000000;stroke-width:0.8;" x="57.6" xlink:href="#m2d4c716bfd" y="85.824"/>
      </g>
     </g>
     <g id="text_13">
      <!-- 1.0 -->
      <g transform="translate(34.696875 89.623219)scale(0.1 -0.1)">
       <use xlink:href="#DejaVuSans-31"/>
       <use x="63.623047" xlink:href="#DejaVuSans-2e"/>
       <use x="95.410156" xlink:href="#DejaVuSans-30"/>
      </g>
     </g>
    </g>
    <g id="ytick_7">
     <g id="line2d_13">
      <g>
       <use style="stroke:#000000;stroke-width:0.8;" x="57.6" xlink:href="#m2d4c716bfd" y="41.472"/>
      </g>
     </g>
     <g id="text_14">
      <!-- 1.2 -->
      <g transform="translate(34.696875 45.271219)scale(0.1 -0.1)">
       <use xlink:href="#DejaVuSans-31"/>
       <use x="63.623047" xlink:href="#DejaVuSans-2e"/>
       <use x="95.410156" xlink:href="#DejaVuSans-32"/>
      </g>
     </g>
    </g>
    <g id="text_15">
     <!-- Average reward -->
     <defs>
      <path d="M 34.1875 63.1875 
L 20.796875 26.90625 
L 47.609375 26.90625 
z
M 28.609375 72.90625 
L 39.796875 72.90625 
L 67.578125 0 
L 57.328125 0 
L 50.6875 18.703125 
L 17.828125 18.703125 
L 11.1875 0 
L 0.78125 0 
z
" id="DejaVuSans-41"/>
      <path d="M 2.984375 54.6875 
L 12.5 54.6875 
L 29.59375 8.796875 
L 46.6875 54.6875 
L 56.203125 54.6875 
L 35.6875 0 
L 23.484375 0 
z
" id="DejaVuSans-76"/>
      <path d="M 41.109375 46.296875 
Q 39.59375 47.171875 37.8125 47.578125 
Q 36.03125 48 33.890625 48 
Q 26.265625 48 22.1875 43.046875 
Q 18.109375 38.09375 18.109375 28.8125 
L 18.109375 0 
L 9.078125 0 
L 9.078125 54.6875 
L 18.109375 54.6875 
L 18.109375 46.1875 
Q 20.953125 51.171875 25.484375 53.578125 
Q 30.03125 56 36.53125 56 
Q 37.453125 56 38.578125 55.875 
Q 39.703125 55.765625 41.0625 55.515625 
z
" id="DejaVuSans-72"/>
      <path d="M 34.28125 27.484375 
Q 23.390625 27.484375 19.1875 25 
Q 14.984375 22.515625 14.984375 16.5 
Q 14.984375 11.71875 18.140625 8.90625 
Q 21.296875 6.109375 26.703125 6.109375 
Q 34.1875 6.109375 38.703125 11.40625 
Q 43.21875 16.703125 43.21875 25.484375 
L 43.21875 27.484375 
z
M 52.203125 31.203125 
L 52.203125 0 
L 43.21875 0 
L 43.21875 8.296875 
Q 40.140625 3.328125 35.546875 0.953125 
Q 30.953125 -1.421875 24.3125 -1.421875 
Q 15.921875 -1.421875 10.953125 3.296875 
Q 6 8.015625 6 15.921875 
Q 6 25.140625 12.171875 29.828125 
Q 18.359375 34.515625 30.609375 34.515625 
L 43.21875 34.515625 
L 43.21875 35.40625 
Q 43.21875 41.609375 39.140625 45 
Q 35.0625 48.390625 27.6875 48.390625 
Q 23 48.390625 18.546875 47.265625 
Q 14.109375 46.140625 10.015625 43.890625 
L 10.015625 52.203125 
Q 14.9375 54.109375 19.578125 55.046875 
Q 24.21875 56 28.609375 56 
Q 40.484375 56 46.34375 49.84375 
Q 52.203125 43.703125 52.203125 31.203125 
z
" id="DejaVuSans-61"/>
      <path d="M 45.40625 27.984375 
Q 45.40625 37.75 41.375 43.109375 
Q 37.359375 48.484375 30.078125 48.484375 
Q 22.859375 48.484375 18.828125 43.109375 
Q 14.796875 37.75 14.796875 27.984375 
Q 14.796875 18.265625 18.828125 12.890625 
Q 22.859375 7.515625 30.078125 7.515625 
Q 37.359375 7.515625 41.375 12.890625 
Q 45.40625 18.265625 45.40625 27.984375 
z
M 54.390625 6.78125 
Q 54.390625 -7.171875 48.1875 -13.984375 
Q 42 -20.796875 29.203125 -20.796875 
Q 24.46875 -20.796875 20.265625 -20.09375 
Q 16.0625 -19.390625 12.109375 -17.921875 
L 12.109375 -9.1875 
Q 16.0625 -11.328125 19.921875 -12.34375 
Q 23.78125 -13.375 27.78125 -13.375 
Q 36.625 -13.375 41.015625 -8.765625 
Q 45.40625 -4.15625 45.40625 5.171875 
L 45.40625 9.625 
Q 42.625 4.78125 38.28125 2.390625 
Q 33.9375 0 27.875 0 
Q 17.828125 0 11.671875 7.65625 
Q 5.515625 15.328125 5.515625 27.984375 
Q 5.515625 40.671875 11.671875 48.328125 
Q 17.828125 56 27.875 56 
Q 33.9375 56 38.28125 53.609375 
Q 42.625 51.21875 45.40625 46.390625 
L 45.40625 54.6875 
L 54.390625 54.6875 
z
" id="DejaVuSans-67"/>
      <path id="DejaVuSans-20"/>
      <path d="M 4.203125 54.6875 
L 13.1875 54.6875 
L 24.421875 12.015625 
L 35.59375 54.6875 
L 46.1875 54.6875 
L 57.421875 12.015625 
L 68.609375 54.6875 
L 77.59375 54.6875 
L 63.28125 0 
L 52.6875 0 
L 40.921875 44.828125 
L 29.109375 0 
L 18.5 0 
z
" id="DejaVuSans-77"/>
      <path d="M 45.40625 46.390625 
L 45.40625 75.984375 
L 54.390625 75.984375 
L 54.390625 0 
L 45.40625 0 
L 45.40625 8.203125 
Q 42.578125 3.328125 38.25 0.953125 
Q 33.9375 -1.421875 27.875 -1.421875 
Q 17.96875 -1.421875 11.734375 6.484375 
Q 5.515625 14.40625 5.515625 27.296875 
Q 5.515625 40.1875 11.734375 48.09375 
Q 17.96875 56 27.875 56 
Q 33.9375 56 38.25 53.625 
Q 42.578125 51.265625 45.40625 46.390625 
z
M 14.796875 27.296875 
Q 14.796875 17.390625 18.875 11.75 
Q 22.953125 6.109375 30.078125 6.109375 
Q 37.203125 6.109375 41.296875 11.75 
Q 45.40625 17.390625 45.40625 27.296875 
Q 45.40625 37.203125 41.296875 42.84375 
Q 37.203125 48.484375 30.078125 48.484375 
Q 22.953125 48.484375 18.875 42.84375 
Q 14.796875 37.203125 14.796875 27.296875 
z
" id="DejaVuSans-64"/>
     </defs>
     <g transform="translate(28.617187 214.452219)rotate(-90)scale(0.1 -0.1)">
      <use xlink:href="#DejaVuSans-41"/>
      <use x="68.330078" xlink:href="#DejaVuSans-76"/>
      <use x="127.509766" xlink:href="#DejaVuSans-65"/>
      <use x="189.033203" xlink:href="#DejaVuSans-72"/>
      <use x="230.146484" xlink:href="#DejaVuSans-61"/>
      <use x="291.425781" xlink:href="#DejaVuSans-67"/>
      <use x="354.902344" xlink:href="#DejaVuSans-65"/>
      <use x="416.425781" xlink:href="#DejaVuSans-20"/>
      <use x="448.212891" xlink:href="#DejaVuSans-72"/>
      <use x="489.294922" xlink:href="#DejaVuSans-65"/>
      <use x="550.818359" xlink:href="#DejaVuSans-77"/>
      <use x="632.605469" xlink:href="#DejaVuSans-61"/>
      <use x="693.884766" xlink:href="#DejaVuSans-72"/>
      <use x="734.982422" xlink:href="#DejaVuSans-64"/>
     </g>
    </g>
   </g>
   <g id="line2d_14">
    <path clip-path="url(#pf13a27d93f)" d="M 73.832727 196.13891 
L 74.482686 193.350593 
L 74.807666 197.039369 
L 75.132645 197.471631 
L 75.457625 196.671865 
L 75.782604 198.404041 
L 76.107584 197.304191 
L 76.432563 198.135391 
L 76.757543 197.069527 
L 77.082523 196.905212 
L 77.407502 197.31297 
L 77.732482 198.284236 
L 78.057461 196.625965 
L 78.382441 195.704462 
L 78.70742 195.878724 
L 79.0324 197.854332 
L 79.357379 198.749463 
L 79.682359 197.494438 
L 80.007338 196.797734 
L 80.332318 196.406732 
L 80.657297 194.947209 
L 80.982277 197.991528 
L 81.307256 196.58438 
L 81.632236 196.084389 
L 81.957215 196.465271 
L 82.282195 196.230145 
L 82.607174 198.837435 
L 82.932154 198.834795 
L 83.257133 195.505057 
L 83.582113 195.883492 
L 83.907093 192.84758 
L 84.232072 196.266012 
L 84.557052 193.312856 
L 84.882031 194.569 
L 85.207011 194.548608 
L 85.53199 194.127607 
L 85.85697 194.223639 
L 86.181949 191.822179 
L 86.506929 192.573237 
L 86.831908 192.915473 
L 87.156888 193.006996 
L 87.481867 192.842611 
L 87.806847 190.4062 
L 88.131826 191.60355 
L 88.456806 189.575672 
L 88.781785 190.241268 
L 89.106765 187.192003 
L 89.431744 188.394685 
L 89.756724 187.874449 
L 90.081704 185.182 
L 90.406683 186.696219 
L 90.731663 184.345498 
L 91.056642 186.244489 
L 91.381622 181.999152 
L 91.706601 183.24271 
L 92.031581 179.36155 
L 92.35656 180.640362 
L 92.68154 178.196833 
L 93.006519 179.945079 
L 93.331499 180.238866 
L 93.656478 176.678124 
L 93.981458 179.428483 
L 94.306437 177.153628 
L 94.631417 179.570886 
L 94.956396 172.928962 
L 95.281376 172.79543 
L 95.606355 173.828023 
L 95.931335 173.08206 
L 96.256314 167.242802 
L 96.581294 171.36602 
L 96.906274 172.044274 
L 97.231253 172.136419 
L 97.556233 172.752228 
L 97.881212 168.914463 
L 98.206192 169.624201 
L 98.531171 167.254242 
L 98.856151 169.547213 
L 99.18113 169.255612 
L 99.50611 167.422944 
L 99.831089 162.923799 
L 100.156069 167.662264 
L 100.481048 166.580853 
L 100.806028 167.499489 
L 101.131007 163.922001 
L 101.455987 167.142147 
L 102.105946 163.061079 
L 102.430925 164.087917 
L 102.755905 166.873259 
L 103.405864 159.594404 
L 103.730844 162.067092 
L 104.055823 163.120464 
L 104.380803 158.176262 
L 104.705782 160.341024 
L 105.030762 156.440141 
L 105.355741 158.544652 
L 105.680721 159.471003 
L 106.0057 156.578214 
L 106.655659 159.202708 
L 106.980639 157.107857 
L 107.305618 156.110947 
L 107.630598 161.049049 
L 108.280557 157.984467 
L 108.605536 153.020292 
L 108.930516 157.300198 
L 109.255495 152.205282 
L 109.580475 153.309748 
L 110.230434 152.041075 
L 110.555414 154.048757 
L 110.880393 152.71503 
L 111.205373 152.10948 
L 111.530352 152.142206 
L 111.855332 152.722063 
L 112.505291 147.959636 
L 113.15525 153.727216 
L 113.480229 150.359927 
L 113.805209 154.426369 
L 114.130188 149.898717 
L 114.455168 149.736031 
L 114.780147 147.80157 
L 115.105127 152.375488 
L 115.430106 149.537097 
L 115.755086 149.14961 
L 116.405045 152.34217 
L 116.730025 151.114419 
L 117.055004 147.721131 
L 117.379984 150.87918 
L 117.704963 149.969371 
L 118.029943 150.424994 
L 118.354922 152.01324 
L 118.679902 151.816335 
L 119.329861 147.262319 
L 119.65484 149.646536 
L 119.97982 145.472545 
L 120.304799 148.353323 
L 120.954758 147.714473 
L 121.279738 145.502924 
L 121.604717 146.750139 
L 122.254676 147.16522 
L 122.579656 142.770909 
L 122.904636 146.757037 
L 123.229615 146.728954 
L 123.554595 145.328864 
L 123.879574 148.178624 
L 124.204554 144.043131 
L 124.529533 146.483769 
L 124.854513 146.281057 
L 125.179492 145.400642 
L 125.504472 146.299547 
L 125.829451 147.807957 
L 126.154431 144.969667 
L 126.47941 146.211865 
L 126.80439 142.835046 
L 127.129369 144.039412 
L 127.454349 142.388024 
L 127.779328 144.773899 
L 128.429287 140.466039 
L 128.754267 139.219837 
L 129.079247 141.901885 
L 129.404226 141.813914 
L 129.729206 142.251058 
L 130.054185 139.412101 
L 130.379165 140.264066 
L 130.704144 140.309121 
L 131.029124 137.915077 
L 131.354103 139.350688 
L 131.679083 138.406482 
L 132.004062 139.7801 
L 132.329042 137.723501 
L 132.654021 139.612849 
L 132.979001 139.180841 
L 133.30398 139.63867 
L 133.62896 139.565333 
L 133.953939 139.794981 
L 134.278919 136.597594 
L 134.603898 138.242814 
L 134.928878 138.599672 
L 135.253857 134.718646 
L 135.578837 138.566188 
L 135.903817 135.589214 
L 136.228796 137.774729 
L 136.553776 132.021825 
L 136.878755 136.885424 
L 137.203735 136.354839 
L 137.528714 139.427789 
L 137.853694 135.36645 
L 138.178673 138.873993 
L 138.503653 137.690429 
L 138.828632 133.602241 
L 139.153612 132.942593 
L 139.478591 133.475048 
L 139.803571 132.049184 
L 140.12855 134.810111 
L 140.45353 132.905769 
L 140.778509 134.101421 
L 141.103489 134.51548 
L 141.428468 132.780761 
L 141.753448 132.254038 
L 142.078428 136.7232 
L 142.403407 136.129441 
L 143.053366 132.977966 
L 143.378346 133.800133 
L 143.703325 138.350876 
L 144.028305 134.202047 
L 144.353284 134.968265 
L 144.678264 132.848267 
L 145.003243 129.855384 
L 145.328223 133.507869 
L 145.653202 133.18885 
L 145.978182 133.788734 
L 146.303161 131.515455 
L 146.95312 134.145788 
L 147.2781 131.757885 
L 147.603079 131.398918 
L 147.928059 130.734078 
L 148.253038 133.013265 
L 148.578018 132.669995 
L 148.902998 129.376586 
L 149.227977 131.617762 
L 149.552957 132.961655 
L 149.877936 127.029145 
L 150.202916 132.312542 
L 150.527895 131.461711 
L 150.852875 126.381905 
L 151.177854 130.498903 
L 151.502834 126.199262 
L 152.152793 133.575645 
L 152.477772 132.041031 
L 152.802752 132.729116 
L 153.127731 131.304719 
L 153.452711 128.06426 
L 153.77769 132.377131 
L 154.10267 128.664566 
L 154.427649 131.799866 
L 154.752629 130.741882 
L 155.077609 131.650979 
L 155.402588 133.342809 
L 155.727568 130.740661 
L 156.052547 130.316311 
L 156.377527 131.472421 
L 156.702506 129.778275 
L 157.027486 132.266928 
L 157.352465 131.032973 
L 157.677445 128.410333 
L 158.002424 127.131442 
L 158.327404 130.325301 
L 158.652383 131.730002 
L 158.977363 130.0759 
L 159.302342 131.218094 
L 159.627322 129.147213 
L 159.952301 132.197596 
L 160.277281 128.906886 
L 160.60226 128.343521 
L 160.92724 126.599283 
L 161.252219 128.877863 
L 161.577199 133.840648 
L 161.902179 130.076396 
L 162.227158 132.026157 
L 162.552138 128.980403 
L 162.877117 132.798485 
L 163.202097 128.319881 
L 163.527076 133.376804 
L 163.852056 127.19891 
L 164.502015 131.728553 
L 164.826994 129.854335 
L 165.151974 131.193766 
L 165.801933 125.649309 
L 166.126912 128.958849 
L 166.451892 128.884212 
L 166.776871 129.890527 
L 167.101851 130.337043 
L 167.42683 124.429088 
L 168.401769 128.492749 
L 168.726749 127.290824 
L 169.051728 129.854169 
L 169.376708 131.229638 
L 169.701687 130.743582 
L 170.026667 125.782927 
L 170.351646 128.811255 
L 170.676626 130.142223 
L 171.001605 132.828228 
L 171.326585 128.31118 
L 171.651564 125.400165 
L 171.976544 129.959101 
L 172.301523 129.594356 
L 172.626503 129.932914 
L 172.951482 124.67286 
L 173.276462 126.633563 
L 173.926421 123.897191 
L 174.2514 122.345264 
L 174.57638 125.052259 
L 174.90136 133.747462 
L 175.226339 132.862417 
L 175.551319 127.002356 
L 175.876298 126.777626 
L 176.201278 128.001419 
L 176.526257 125.57537 
L 176.851237 128.842738 
L 177.176216 124.793725 
L 177.501196 129.596905 
L 177.826175 127.084227 
L 178.151155 125.824388 
L 178.476134 126.054658 
L 178.801114 127.831384 
L 179.126093 131.744943 
L 179.451073 128.773917 
L 179.776052 124.597955 
L 180.426011 128.021709 
L 180.750991 129.08083 
L 181.075971 127.962952 
L 181.40095 129.573417 
L 181.72593 125.704079 
L 182.050909 127.285126 
L 182.375889 127.193369 
L 182.700868 128.657592 
L 183.025848 128.621748 
L 183.350827 126.768102 
L 183.675807 129.106161 
L 184.000786 130.45334 
L 184.325766 126.301127 
L 184.650745 126.183254 
L 184.975725 124.389743 
L 185.300704 129.22658 
L 185.625684 128.079396 
L 185.950663 125.395254 
L 186.275643 131.102921 
L 186.600622 130.539323 
L 186.925602 126.975191 
L 187.250581 125.50035 
L 187.575561 126.748127 
L 187.900541 124.888008 
L 188.22552 125.469939 
L 188.5505 126.849677 
L 188.875479 125.880001 
L 189.200459 126.0446 
L 189.525438 127.215914 
L 189.850418 126.528001 
L 190.175397 122.436962 
L 190.825356 126.236595 
L 191.150336 124.536357 
L 191.475315 120.802062 
L 191.800295 122.651749 
L 192.125274 122.702681 
L 192.450254 126.710797 
L 192.775233 122.63492 
L 193.100213 121.548617 
L 193.425192 123.656461 
L 193.750172 121.641358 
L 194.400131 127.70217 
L 194.725111 124.080895 
L 195.05009 126.868246 
L 195.37507 124.666094 
L 195.700049 126.486114 
L 196.025029 123.557285 
L 196.350008 124.868335 
L 196.674988 123.256827 
L 196.999967 122.251931 
L 197.324947 126.990773 
L 197.649926 126.808608 
L 197.974906 127.220512 
L 198.299885 125.412204 
L 198.624865 120.986856 
L 198.949844 122.319411 
L 199.274824 122.402252 
L 199.599803 121.558831 
L 199.924783 122.019001 
L 200.249762 123.464602 
L 200.574742 120.590604 
L 200.899722 123.650449 
L 201.224701 120.999855 
L 201.549681 123.891567 
L 201.87466 124.307257 
L 202.19964 127.285919 
L 202.524619 123.207844 
L 202.849599 124.173954 
L 203.174578 121.565586 
L 203.499558 123.192876 
L 203.824537 126.118713 
L 204.149517 122.537812 
L 204.474496 123.174216 
L 204.799476 122.464917 
L 205.124455 121.300467 
L 205.449435 124.897876 
L 205.774414 124.974766 
L 206.099394 118.104651 
L 206.424373 123.887835 
L 206.749353 120.369239 
L 207.074333 119.049189 
L 207.399312 120.290226 
L 207.724292 118.098869 
L 208.049271 124.037192 
L 208.374251 120.936071 
L 208.69923 120.600221 
L 209.02421 122.355586 
L 209.349189 119.553506 
L 209.674169 117.920098 
L 209.999148 119.533932 
L 210.324128 125.145012 
L 210.649107 117.408589 
L 210.974087 117.281148 
L 211.624046 121.3021 
L 211.949025 121.046856 
L 212.274005 115.666552 
L 212.923964 121.100111 
L 213.248943 118.660691 
L 213.573923 118.453001 
L 213.898903 120.278603 
L 214.223882 119.529695 
L 214.548862 116.872928 
L 214.873841 122.919799 
L 215.198821 116.212337 
L 215.5238 119.526007 
L 215.84878 117.604142 
L 216.173759 120.754938 
L 216.498739 115.32153 
L 216.823718 115.736227 
L 217.473677 118.181721 
L 218.123636 112.433047 
L 218.448616 115.527511 
L 218.773595 116.667681 
L 219.098575 112.516524 
L 219.423554 122.530338 
L 219.748534 116.044667 
L 220.073514 115.153498 
L 220.398493 122.013384 
L 220.723473 120.834476 
L 221.048452 117.836123 
L 221.373432 118.5615 
L 221.698411 120.097059 
L 222.34837 111.622779 
L 222.67335 116.001368 
L 222.998329 117.004549 
L 223.323309 113.296968 
L 223.648288 116.715052 
L 223.973268 115.191011 
L 224.298247 118.251538 
L 224.623227 119.510833 
L 224.948206 115.818596 
L 225.273186 114.398562 
L 225.598165 112.080461 
L 225.923145 117.354346 
L 226.573104 113.935102 
L 226.898084 114.308836 
L 227.548043 117.533562 
L 227.873022 114.855557 
L 228.198002 114.765583 
L 228.522981 114.039259 
L 228.847961 112.118008 
L 229.17294 116.387 
L 229.49792 110.002666 
L 230.147879 114.428783 
L 230.472858 118.710412 
L 230.797838 112.342185 
L 231.122817 110.802353 
L 231.447797 115.264361 
L 231.772776 113.439877 
L 232.097756 114.119738 
L 232.422735 114.424504 
L 232.747715 116.275743 
L 233.072695 113.99698 
L 233.397674 108.592666 
L 233.722654 116.658188 
L 234.047633 107.404292 
L 234.372613 117.013211 
L 235.022572 110.721203 
L 235.347551 110.821848 
L 235.672531 113.512421 
L 235.99751 110.973455 
L 236.32249 113.815664 
L 236.647469 110.980286 
L 236.972449 110.943043 
L 237.297428 116.775474 
L 237.622408 108.446929 
L 237.947387 112.614441 
L 238.272367 110.357042 
L 238.597346 116.738549 
L 238.922326 112.266278 
L 239.247305 111.421385 
L 239.572285 109.943028 
L 239.897265 107.504266 
L 240.222244 113.196329 
L 240.547224 113.362601 
L 240.872203 112.158854 
L 241.197183 114.250279 
L 241.522162 110.157368 
L 241.847142 110.522301 
L 242.497101 111.868016 
L 242.82208 111.055976 
L 243.14706 113.864407 
L 243.472039 107.241774 
L 243.797019 112.235193 
L 244.446978 107.467945 
L 244.771957 111.926966 
L 245.096937 110.540024 
L 245.421916 112.066367 
L 245.746896 114.145201 
L 246.071876 114.646053 
L 246.396855 113.654513 
L 246.721835 108.649742 
L 247.046814 113.119787 
L 247.371794 110.649225 
L 248.021753 111.108356 
L 248.346732 106.760782 
L 248.996691 112.441965 
L 249.321671 110.557631 
L 249.64665 110.548248 
L 249.97163 111.378916 
L 250.296609 108.871195 
L 250.621589 111.193095 
L 250.946568 109.000194 
L 251.271548 114.08104 
L 251.596527 106.767976 
L 251.921507 110.586889 
L 252.246486 111.316974 
L 252.571466 110.940156 
L 252.896446 106.676325 
L 253.221425 109.409752 
L 253.871384 111.570102 
L 254.196364 108.210648 
L 254.521343 106.600318 
L 254.846323 108.266871 
L 255.171302 103.898608 
L 255.496282 111.723544 
L 255.821261 107.809629 
L 256.146241 109.78468 
L 256.47122 110.453757 
L 256.7962 108.580902 
L 257.121179 104.875144 
L 257.446159 109.196619 
L 257.771138 108.43395 
L 258.096118 111.033079 
L 258.421097 104.31059 
L 258.746077 112.213066 
L 259.071057 108.912455 
L 259.396036 112.18716 
L 259.721016 107.896819 
L 260.045995 108.152853 
L 260.695954 112.960262 
L 261.020934 107.263961 
L 261.345913 108.180924 
L 261.670893 105.585609 
L 261.995872 105.800743 
L 262.320852 106.708775 
L 262.645831 106.285651 
L 263.29579 110.781652 
L 263.62077 109.455907 
L 263.945749 110.181533 
L 264.595708 104.212504 
L 264.920688 109.646295 
L 265.245667 105.408666 
L 265.570647 106.980566 
L 265.895627 113.03147 
L 266.220606 110.755145 
L 266.545586 114.956631 
L 266.870565 107.72732 
L 267.195545 107.383347 
L 267.520524 106.195367 
L 267.845504 109.645005 
L 268.170483 104.380904 
L 268.495463 106.114586 
L 268.820442 104.469359 
L 269.145422 106.438969 
L 269.470401 110.127266 
L 270.12036 104.784712 
L 270.44534 104.650991 
L 270.770319 109.965202 
L 271.095299 108.206017 
L 271.420278 110.326735 
L 271.745258 108.632028 
L 272.070238 112.473368 
L 272.395217 112.198613 
L 272.720197 108.417692 
L 273.045176 106.548818 
L 273.370156 109.181721 
L 273.695135 107.309328 
L 274.020115 109.518105 
L 274.345094 107.191075 
L 274.670074 105.90391 
L 274.995053 106.321986 
L 275.320033 106.984325 
L 275.645012 107.017616 
L 276.294971 112.688975 
L 276.619951 107.011841 
L 276.94493 112.941052 
L 277.26991 106.028961 
L 277.594889 106.974401 
L 277.919869 109.26186 
L 278.244848 107.095545 
L 278.569828 109.530634 
L 278.894808 104.319165 
L 279.219787 110.266424 
L 279.544767 106.163172 
L 279.869746 111.310302 
L 280.194726 106.933224 
L 280.519705 104.138541 
L 280.844685 111.317156 
L 281.169664 107.679902 
L 281.494644 111.487465 
L 281.819623 109.835273 
L 282.144603 105.9335 
L 282.794562 111.050517 
L 283.119541 106.59555 
L 283.444521 110.781429 
L 283.7695 110.998061 
L 284.09448 109.266178 
L 284.419459 105.928585 
L 284.744439 106.968437 
L 285.069419 109.968234 
L 285.394398 110.135085 
L 286.044357 105.107882 
L 286.369337 106.857573 
L 286.694316 109.48403 
L 287.019296 104.662618 
L 287.344275 108.37305 
L 287.669255 109.873445 
L 287.994234 108.369523 
L 288.319214 105.634112 
L 288.644193 105.070061 
L 288.969173 106.520866 
L 289.619132 110.838447 
L 289.944111 108.923596 
L 290.59407 113.340703 
L 290.91905 107.309824 
L 291.244029 107.170505 
L 291.569009 112.666482 
L 291.893989 107.754662 
L 292.218968 110.12323 
L 292.868927 106.472939 
L 293.193907 113.533146 
L 293.843866 104.591683 
L 294.493825 111.700957 
L 294.818804 109.406066 
L 295.143784 104.158489 
L 295.793743 106.919591 
L 296.118722 110.279488 
L 296.443702 110.23177 
L 296.768681 110.625714 
L 297.093661 104.574652 
L 297.41864 106.857729 
L 297.74362 107.809846 
L 298.0686 106.062915 
L 298.393579 105.95871 
L 298.718559 106.14745 
L 299.043538 108.08627 
L 299.368518 104.534385 
L 299.693497 108.325317 
L 300.018477 110.047378 
L 300.343456 109.652493 
L 300.668436 106.903446 
L 300.993415 112.713864 
L 301.318395 107.451417 
L 301.643374 106.848099 
L 301.968354 109.339999 
L 302.293333 105.950792 
L 302.618313 111.378165 
L 302.943292 111.834772 
L 303.268272 108.980366 
L 303.593251 107.866067 
L 303.918231 106.190634 
L 304.24321 107.764145 
L 304.89317 111.885716 
L 305.218149 105.477232 
L 305.543129 105.919122 
L 305.868108 108.50344 
L 306.193088 106.963699 
L 306.518067 107.295538 
L 306.843047 110.509969 
L 307.168026 108.100265 
L 307.493006 107.987312 
L 307.817985 112.878408 
L 308.142965 106.14242 
L 308.467944 105.061004 
L 308.792924 106.986108 
L 309.117903 107.156734 
L 309.442883 104.836979 
L 309.767862 110.544608 
L 310.742801 102.906684 
L 311.067781 109.590738 
L 311.39276 105.81997 
L 311.71774 107.391163 
L 312.367699 109.408031 
L 312.692678 109.052343 
L 313.017658 105.143359 
L 313.342637 105.432982 
L 313.667617 108.919489 
L 313.992596 104.886607 
L 314.317576 107.286063 
L 314.642555 110.830788 
L 314.967535 110.005553 
L 315.292514 102.716056 
L 316.267453 110.307256 
L 316.592432 110.251561 
L 316.917412 108.507888 
L 317.242391 105.450773 
L 317.567371 106.629905 
L 317.892351 108.322382 
L 318.21733 109.242302 
L 318.54231 112.649889 
L 318.867289 107.167434 
L 319.192269 107.933407 
L 319.517248 110.908592 
L 319.842228 103.72167 
L 320.167207 107.675833 
L 320.492187 109.465088 
L 320.817166 103.604002 
L 321.142146 106.755004 
L 321.467125 106.926902 
L 321.792105 105.361323 
L 322.117084 110.364553 
L 322.442064 105.219287 
L 322.767043 111.414834 
L 323.417002 108.797703 
L 323.741982 111.620805 
L 324.391941 103.121136 
L 325.36688 112.183949 
L 325.691859 104.712354 
L 326.016839 104.677622 
L 326.341818 110.995814 
L 326.666798 109.859546 
L 326.991777 104.034226 
L 327.316757 111.875212 
L 327.641736 105.66169 
L 327.966716 111.708413 
L 328.291695 109.838309 
L 328.616675 103.424256 
L 328.941654 113.187949 
L 329.266634 105.572591 
L 329.591613 108.555673 
L 329.916593 107.107864 
L 330.241572 107.329952 
L 330.566552 107.050768 
L 330.891532 111.388456 
L 331.216511 105.262478 
L 331.541491 111.22682 
L 332.19145 108.198808 
L 332.516429 107.506552 
L 332.841409 109.338776 
L 333.166388 103.005377 
L 333.491368 108.217165 
L 333.816347 108.862934 
L 334.141327 113.336311 
L 334.466306 105.544378 
L 334.791286 112.637824 
L 335.116265 104.409995 
L 335.441245 106.120335 
L 335.766224 106.265542 
L 336.091204 108.92017 
L 336.416183 102.133572 
L 336.741163 106.973889 
L 337.066143 107.621909 
L 337.391122 106.048907 
L 337.716102 106.710402 
L 338.041081 113.459692 
L 338.366061 107.355199 
L 338.69104 108.913206 
L 339.01602 105.43596 
L 339.340999 107.616754 
L 339.665979 104.320636 
L 339.990958 109.871736 
L 340.640917 107.836446 
L 340.965897 115.035218 
L 341.290876 106.426349 
L 341.940835 105.75017 
L 342.265815 109.83991 
L 342.590794 109.356441 
L 342.915774 105.691506 
L 343.240753 103.322059 
L 343.890713 114.260049 
L 344.215692 113.541687 
L 344.540672 110.196526 
L 344.865651 109.214474 
L 345.190631 109.602963 
L 345.51561 106.280891 
L 345.84059 106.49393 
L 346.165569 108.63544 
L 346.490549 104.813181 
L 346.815528 107.659664 
L 347.140508 107.374415 
L 347.465487 106.027171 
L 347.790467 106.955601 
L 348.115446 112.440131 
L 348.765405 105.45915 
L 349.090385 105.255554 
L 349.415364 106.513434 
L 349.740344 112.38315 
L 350.390303 102.876948 
L 350.715283 108.914969 
L 351.040262 108.815729 
L 351.365242 107.140352 
L 351.690221 110.948139 
L 352.015201 109.076673 
L 352.34018 112.60062 
L 352.990139 105.647257 
L 353.315119 113.821666 
L 353.640098 105.932087 
L 354.290057 107.989454 
L 354.940016 106.679822 
L 355.264996 110.908312 
L 355.589975 107.815385 
L 356.239934 107.814847 
L 356.564914 108.722467 
L 356.889894 106.07514 
L 357.214873 113.484273 
L 357.539853 109.169243 
L 357.864832 108.473578 
L 358.189812 106.094087 
L 358.514791 111.229086 
L 358.839771 103.774976 
L 359.16475 108.718541 
L 359.48973 106.780349 
L 359.814709 111.34898 
L 360.139689 106.633705 
L 360.464668 111.201094 
L 360.789648 111.285895 
L 361.114627 111.611104 
L 361.439607 102.448727 
L 361.764586 105.798098 
L 362.089566 107.75736 
L 362.414545 106.97615 
L 362.739525 109.207495 
L 363.389484 105.540475 
L 363.714464 111.85285 
L 364.039443 108.875493 
L 364.364423 108.792995 
L 364.689402 108.546449 
L 365.014382 109.335402 
L 365.339361 111.803546 
L 365.664341 109.108452 
L 365.98932 110.153066 
L 366.3143 105.398283 
L 366.639279 106.920123 
L 366.964259 105.557542 
L 367.614218 110.225491 
L 367.939197 108.260903 
L 368.264177 108.401265 
L 368.589156 106.142281 
L 368.914136 109.965882 
L 369.239115 111.335847 
L 369.564095 106.696084 
L 369.889075 106.476167 
L 370.214054 108.145434 
L 370.539034 105.6022 
L 370.864013 107.427181 
L 371.188993 108.397298 
L 371.513972 105.127995 
L 371.838952 109.106527 
L 372.163931 109.440128 
L 372.488911 106.477465 
L 372.81389 109.427985 
L 373.13887 109.7522 
L 373.463849 113.492852 
L 373.788829 111.303344 
L 374.113808 106.13115 
L 374.438788 107.693726 
L 374.763767 104.781999 
L 375.413726 110.926269 
L 375.738706 106.691194 
L 376.063686 104.657392 
L 376.388665 104.364263 
L 376.713645 104.845337 
L 377.363604 109.939695 
L 377.688583 111.193546 
L 378.013563 107.355941 
L 378.338542 107.552794 
L 378.663522 105.945101 
L 378.988501 107.207957 
L 379.313481 105.609253 
L 379.63846 107.250127 
L 379.96344 111.610313 
L 380.288419 104.057144 
L 380.613399 104.194113 
L 380.938378 110.591101 
L 381.263358 109.480726 
L 381.588337 111.416172 
L 381.913317 109.997922 
L 382.238296 106.204537 
L 382.563276 105.646502 
L 382.888256 104.459744 
L 383.213235 109.011672 
L 383.538215 104.889197 
L 383.863194 107.997949 
L 384.188174 106.237119 
L 384.513153 107.520495 
L 384.838133 106.396019 
L 385.163112 111.318794 
L 385.488092 105.721459 
L 385.813071 108.145616 
L 386.138051 113.1905 
L 386.46303 108.210466 
L 386.78801 107.817494 
L 387.112989 106.416582 
L 387.437969 107.309285 
L 387.762948 113.839782 
L 388.087928 106.252516 
L 388.412907 110.013823 
L 388.737887 111.96216 
L 389.062867 110.097478 
L 389.387846 113.100438 
L 389.712826 107.558193 
L 390.037805 105.285813 
L 390.362785 108.705777 
L 390.687764 110.344814 
L 391.012744 109.512769 
L 391.337723 109.245232 
L 391.662703 107.751685 
L 391.987682 109.657573 
L 392.312662 109.329183 
L 392.637641 108.418638 
L 392.962621 104.088417 
L 393.2876 108.861687 
L 393.61258 108.358185 
L 393.937559 106.012251 
L 394.262539 108.032732 
L 394.587518 107.538376 
L 394.912498 106.796266 
L 395.237477 109.924611 
L 395.562457 104.99735 
L 395.887437 108.0125 
L 396.212416 108.901901 
L 396.537396 106.047103 
L 396.862375 101.675312 
L 397.187355 107.81437 
L 397.512334 107.27159 
L 397.837314 110.959881 
L 398.162293 108.064849 
L 398.487273 108.37702 
L 398.487273 108.37702 
" style="fill:none;stroke:#1f77b4;stroke-linecap:square;stroke-opacity:0.75;stroke-width:1.5;"/>
   </g>
   <g id="line2d_15">
    <path clip-path="url(#pf13a27d93f)" d="M 73.832727 134.75359 
L 74.157707 153.757976 
L 75.457625 254.810857 
L 75.782604 127.372116 
L 76.757543 187.77778 
L 77.082523 191.213588 
L 77.407502 191.71533 
L 77.732482 186.663229 
L 78.057461 178.160019 
L 78.382441 166.512451 
L 78.70742 172.632783 
L 79.0324 175.551386 
L 79.357379 167.155858 
L 79.682359 164.808163 
L 80.007338 173.21 
L 80.332318 175.184761 
L 80.657297 168.831649 
L 80.982277 166.783639 
L 81.307256 163.219569 
L 81.632236 166.143497 
L 81.957215 166.874558 
L 82.282195 163.663614 
L 82.932154 159.947089 
L 83.257133 153.826136 
L 83.582113 162.860582 
L 83.907093 159.213878 
L 84.232072 159.817038 
L 84.557052 156.870105 
L 84.882031 162.703881 
L 85.207011 155.523426 
L 85.53199 156.300523 
L 85.85697 155.529392 
L 86.181949 151.037807 
L 86.506929 151.140468 
L 86.831908 146.485932 
L 87.156888 149.610149 
L 87.481867 153.847007 
L 87.806847 155.399358 
L 88.131826 153.25755 
L 88.781785 141.986753 
L 89.106765 152.212635 
L 89.431744 148.154576 
L 89.756724 145.827913 
L 90.081704 140.82253 
L 90.406683 147.758138 
L 90.731663 141.637918 
L 91.056642 147.527139 
L 91.381622 146.631701 
L 91.706601 147.340762 
L 92.031581 145.226408 
L 92.35656 142.060847 
L 92.68154 144.936597 
L 93.006519 132.086839 
L 93.331499 137.837816 
L 93.656478 135.915067 
L 93.981458 126.680961 
L 94.306437 139.823565 
L 94.631417 137.807261 
L 94.956396 138.11682 
L 95.281376 129.482785 
L 95.606355 128.358717 
L 95.931335 135.016805 
L 96.256314 136.151698 
L 96.581294 136.239637 
L 96.906274 136.842089 
L 97.231253 127.66559 
L 97.556233 129.634464 
L 97.881212 129.228059 
L 98.206192 124.086683 
L 98.531171 128.480902 
L 98.856151 126.270536 
L 99.18113 129.682744 
L 99.50611 124.555035 
L 99.831089 128.459108 
L 100.156069 129.639815 
L 100.481048 128.538161 
L 100.806028 121.510422 
L 101.131007 131.418811 
L 101.455987 127.318963 
L 101.780966 120.906734 
L 102.105946 123.582824 
L 102.755905 120.75707 
L 103.080885 120.387033 
L 103.405864 119.736578 
L 103.730844 118.137741 
L 104.055823 124.730681 
L 104.380803 115.690205 
L 104.705782 123.825123 
L 105.030762 123.690227 
L 105.355741 122.300836 
L 105.680721 119.988793 
L 106.0057 116.322575 
L 106.33068 119.066672 
L 106.655659 116.848487 
L 106.980639 117.428087 
L 107.305618 115.811774 
L 107.630598 118.454634 
L 107.955577 119.466524 
L 108.280557 124.277383 
L 108.605536 117.90509 
L 108.930516 114.179689 
L 109.255495 114.160538 
L 109.580475 116.590954 
L 109.905455 120.478024 
L 110.555414 110.602636 
L 111.205373 107.811374 
L 111.530352 108.945544 
L 111.855332 112.170885 
L 112.180311 112.008979 
L 112.505291 107.662848 
L 112.83027 111.833352 
L 113.15525 112.045381 
L 113.480229 114.09396 
L 113.805209 112.858273 
L 114.130188 112.855473 
L 114.455168 111.933239 
L 114.780147 115.053066 
L 115.105127 112.652938 
L 115.430106 113.461899 
L 115.755086 112.254539 
L 116.405045 104.17321 
L 116.730025 105.957251 
L 117.055004 101.556978 
L 117.379984 108.08604 
L 117.704963 111.474186 
L 118.029943 103.575109 
L 118.354922 112.189489 
L 118.679902 110.445319 
L 119.004881 110.642462 
L 119.329861 104.706805 
L 119.65484 100.988311 
L 119.97982 103.678751 
L 120.304799 108.533095 
L 120.629779 100.338907 
L 120.954758 105.911014 
L 121.279738 101.7486 
L 121.604717 105.680576 
L 121.929697 115.315118 
L 122.254676 98.608532 
L 122.579656 97.923744 
L 122.904636 105.873275 
L 123.229615 103.049803 
L 123.554595 101.939531 
L 123.879574 102.70607 
L 124.204554 102.989023 
L 124.529533 101.996158 
L 124.854513 104.226028 
L 125.179492 98.844087 
L 125.504472 107.351621 
L 125.829451 100.023943 
L 126.154431 101.980763 
L 126.47941 104.830698 
L 126.80439 100.417591 
L 127.129369 104.038397 
L 127.454349 105.754923 
L 127.779328 105.398287 
L 128.429287 102.892746 
L 128.754267 103.15053 
L 129.079247 100.042173 
L 129.404226 102.796665 
L 130.054185 104.148258 
L 130.379165 104.251334 
L 130.704144 99.226533 
L 131.029124 100.516044 
L 131.354103 103.421701 
L 131.679083 94.908956 
L 132.004062 103.749728 
L 132.329042 95.20136 
L 132.654021 98.989691 
L 132.979001 93.935314 
L 133.30398 95.580046 
L 133.62896 100.732304 
L 133.953939 104.06883 
L 134.278919 98.410467 
L 134.603898 102.299228 
L 134.928878 98.397274 
L 135.253857 97.759489 
L 135.578837 97.660104 
L 135.903817 105.46195 
L 136.228796 99.382029 
L 136.553776 95.641015 
L 137.203735 103.467053 
L 137.528714 97.946174 
L 137.853694 100.0545 
L 138.178673 96.86839 
L 138.503653 98.152122 
L 138.828632 96.471265 
L 139.153612 92.133747 
L 139.478591 97.222729 
L 139.803571 97.682749 
L 140.12855 104.298268 
L 140.45353 103.942162 
L 140.778509 99.19573 
L 141.103489 96.565192 
L 141.428468 95.72252 
L 141.753448 92.080831 
L 142.078428 99.846372 
L 142.403407 102.499443 
L 142.728387 94.552629 
L 143.378346 97.403071 
L 143.703325 97.022173 
L 144.028305 93.582987 
L 144.353284 100.727473 
L 144.678264 95.020342 
L 145.003243 93.774048 
L 145.328223 96.78788 
L 145.653202 94.852877 
L 145.978182 107.168399 
L 146.303161 104.168229 
L 146.95312 93.490112 
L 147.2781 103.210058 
L 147.603079 92.734904 
L 147.928059 98.867082 
L 148.253038 86.694752 
L 148.578018 95.029937 
L 148.902998 82.569317 
L 149.227977 90.471581 
L 149.552957 91.623144 
L 149.877936 91.7881 
L 150.202916 92.515498 
L 150.852875 99.239844 
L 151.177854 92.504667 
L 151.502834 92.822841 
L 151.827813 89.508625 
L 152.152793 89.475015 
L 152.477772 95.28963 
L 152.802752 94.495864 
L 153.127731 90.284911 
L 153.452711 92.709613 
L 153.77769 96.249377 
L 154.10267 96.507498 
L 154.427649 96.531313 
L 154.752629 98.863004 
L 155.402588 96.009616 
L 155.727568 94.334463 
L 156.052547 94.219863 
L 156.377527 101.3518 
L 156.702506 95.146393 
L 157.027486 101.561008 
L 157.352465 87.947347 
L 157.677445 96.002424 
L 158.002424 98.554596 
L 158.652383 91.806447 
L 158.977363 100.486932 
L 159.302342 92.456966 
L 159.627322 93.004412 
L 159.952301 92.866762 
L 160.277281 89.488998 
L 160.60226 90.831053 
L 160.92724 96.870794 
L 161.577199 93.016837 
L 161.902179 97.644079 
L 162.227158 98.212626 
L 162.552138 93.641984 
L 162.877117 95.144583 
L 163.202097 93.379491 
L 163.527076 97.967629 
L 163.852056 95.757881 
L 164.177035 91.310026 
L 164.502015 91.009993 
L 164.826994 88.274241 
L 165.151974 97.387134 
L 165.476953 93.779825 
L 165.801933 93.583105 
L 166.126912 91.675651 
L 166.451892 91.969043 
L 166.776871 90.729816 
L 167.101851 95.881736 
L 167.42683 91.072019 
L 167.75181 91.259949 
L 168.07679 85.166745 
L 168.401769 83.919879 
L 168.726749 91.232897 
L 169.051728 92.29778 
L 169.376708 85.336618 
L 169.701687 89.532578 
L 170.026667 90.189152 
L 170.351646 88.698914 
L 170.676626 93.849872 
L 171.001605 86.820843 
L 171.326585 87.690098 
L 171.651564 95.059252 
L 171.976544 93.64701 
L 172.301523 95.837266 
L 172.626503 87.907148 
L 172.951482 92.091859 
L 173.276462 83.951405 
L 173.601441 93.204324 
L 173.926421 93.806689 
L 174.2514 97.125773 
L 174.57638 94.289798 
L 174.90136 94.458047 
L 175.226339 90.91614 
L 175.876298 93.424664 
L 176.201278 90.707255 
L 176.526257 92.642875 
L 176.851237 87.699518 
L 177.176216 91.539401 
L 177.501196 93.164699 
L 177.826175 98.025012 
L 178.151155 88.514188 
L 178.476134 92.428382 
L 178.801114 85.985556 
L 179.126093 89.165817 
L 179.451073 94.345976 
L 179.776052 94.165631 
L 180.101032 97.124108 
L 180.426011 91.17866 
L 180.750991 95.004029 
L 181.075971 92.97975 
L 181.40095 89.868202 
L 181.72593 91.420664 
L 182.050909 95.032507 
L 182.375889 84.220431 
L 182.700868 92.14566 
L 183.025848 92.408032 
L 183.350827 91.579917 
L 183.675807 86.348582 
L 184.000786 92.911829 
L 184.325766 92.66358 
L 184.650745 94.063029 
L 184.975725 90.062691 
L 185.300704 100.041042 
L 185.625684 89.833932 
L 185.950663 91.029285 
L 186.275643 89.311649 
L 186.600622 86.259432 
L 186.925602 91.838191 
L 187.250581 91.526922 
L 187.575561 93.327688 
L 187.900541 94.27982 
L 188.5505 98.475987 
L 188.875479 92.935458 
L 189.200459 93.190555 
L 189.525438 87.581809 
L 189.850418 86.145567 
L 190.825356 97.065405 
L 191.150336 87.411874 
L 191.475315 98.876055 
L 191.800295 83.965878 
L 192.125274 94.901843 
L 192.450254 93.201102 
L 192.775233 95.542965 
L 193.100213 90.124199 
L 193.750172 96.889159 
L 194.075152 89.863517 
L 194.400131 93.476974 
L 194.725111 88.933442 
L 195.05009 88.156844 
L 195.37507 93.730732 
L 195.700049 90.109425 
L 196.025029 89.474794 
L 196.350008 82.759159 
L 196.674988 89.135739 
L 196.999967 85.458379 
L 197.324947 92.178995 
L 197.974906 88.767976 
L 198.299885 88.261144 
L 198.624865 93.660868 
L 198.949844 91.164601 
L 199.274824 95.791021 
L 199.924783 82.305194 
L 200.249762 82.013861 
L 200.574742 98.317199 
L 201.224701 83.97974 
L 201.549681 84.077003 
L 201.87466 94.201908 
L 202.19964 90.565668 
L 202.524619 90.165964 
L 202.849599 92.186287 
L 203.174578 85.921316 
L 203.499558 89.267216 
L 203.824537 90.148441 
L 204.149517 93.911925 
L 204.474496 89.48065 
L 204.799476 88.12324 
L 205.124455 93.042418 
L 205.449435 95.467769 
L 205.774414 88.046563 
L 206.099394 86.010308 
L 206.424373 87.151805 
L 207.074333 98.165441 
L 207.399312 87.257036 
L 207.724292 90.092513 
L 208.049271 87.832807 
L 208.374251 89.010884 
L 208.69923 88.757675 
L 209.02421 85.879702 
L 209.349189 90.442131 
L 209.999148 88.586557 
L 210.324128 80.889048 
L 210.649107 89.086493 
L 210.974087 88.455797 
L 211.299066 90.059049 
L 211.624046 87.555577 
L 211.949025 82.755742 
L 212.274005 90.490798 
L 212.598984 91.037201 
L 212.923964 93.556203 
L 213.248943 86.311829 
L 213.573923 86.766537 
L 213.898903 81.878444 
L 214.223882 91.070028 
L 214.548862 87.367297 
L 214.873841 88.341112 
L 215.198821 90.607893 
L 215.5238 82.768083 
L 215.84878 93.193882 
L 216.173759 80.877951 
L 216.823718 92.642142 
L 217.148698 89.966865 
L 217.473677 91.255167 
L 217.798657 84.648015 
L 218.448616 92.177313 
L 218.773595 93.535621 
L 219.098575 89.76648 
L 219.423554 89.169268 
L 219.748534 92.127572 
L 220.073514 91.413503 
L 220.398493 87.769819 
L 220.723473 85.739934 
L 221.048452 91.062921 
L 221.373432 81.866773 
L 221.698411 85.094893 
L 222.34837 86.554946 
L 222.998329 94.103891 
L 223.323309 94.812881 
L 223.648288 88.220959 
L 223.973268 95.912285 
L 224.298247 86.211188 
L 224.623227 94.09988 
L 224.948206 89.559179 
L 225.273186 86.670331 
L 225.598165 91.08823 
L 225.923145 91.913564 
L 226.248124 84.167982 
L 226.573104 90.913259 
L 226.898084 86.424769 
L 227.548043 92.263804 
L 228.198002 86.664475 
L 228.522981 86.281672 
L 228.847961 90.866766 
L 229.17294 91.601369 
L 229.49792 82.419455 
L 229.822899 87.323177 
L 230.147879 88.89456 
L 230.472858 85.472659 
L 230.797838 90.435009 
L 231.122817 88.289359 
L 231.447797 91.665298 
L 231.772776 89.66371 
L 232.097756 90.063174 
L 232.422735 87.955763 
L 232.747715 92.124495 
L 233.072695 90.05248 
L 233.397674 90.117549 
L 233.722654 87.882441 
L 234.047633 88.94037 
L 234.372613 89.100976 
L 234.697592 87.87245 
L 235.022572 87.269375 
L 235.672531 93.974676 
L 235.99751 92.72447 
L 236.32249 92.709665 
L 236.647469 85.080297 
L 236.972449 86.130009 
L 237.297428 85.444594 
L 237.622408 95.871729 
L 237.947387 83.399751 
L 238.597346 85.382711 
L 238.922326 91.021948 
L 239.572285 87.355148 
L 239.897265 87.188275 
L 240.222244 89.580179 
L 240.547224 87.714618 
L 240.872203 90.678444 
L 241.197183 88.2135 
L 241.522162 87.723702 
L 241.847142 92.116405 
L 242.172121 87.118694 
L 242.497101 88.693216 
L 243.14706 84.889451 
L 243.472039 91.716517 
L 243.797019 85.729951 
L 244.121998 87.207557 
L 244.446978 86.522225 
L 244.771957 86.519296 
L 245.096937 88.943421 
L 245.421916 82.111382 
L 246.071876 92.107309 
L 246.396855 87.902915 
L 246.721835 91.675223 
L 247.046814 91.663079 
L 247.371794 87.510778 
L 247.696773 84.86908 
L 248.021753 89.153715 
L 248.346732 87.005537 
L 248.671712 88.892041 
L 248.996691 92.819914 
L 249.321671 92.928932 
L 249.64665 83.697572 
L 249.97163 87.62178 
L 250.296609 87.08128 
L 250.621589 87.660242 
L 250.946568 88.470421 
L 251.271548 85.929652 
L 251.596527 87.510815 
L 251.921507 87.309337 
L 252.246486 87.469073 
L 252.571466 91.891848 
L 252.896446 90.361097 
L 253.221425 85.025263 
L 253.546405 90.45367 
L 253.871384 89.333509 
L 254.196364 89.543458 
L 254.521343 83.967445 
L 255.171302 93.473009 
L 255.496282 88.206234 
L 255.821261 85.028851 
L 256.47122 94.053486 
L 256.7962 84.871456 
L 257.121179 83.099479 
L 257.446159 85.478219 
L 257.771138 85.40663 
L 258.096118 88.328993 
L 258.421097 87.917246 
L 258.746077 82.947882 
L 259.071057 86.263374 
L 259.396036 84.917312 
L 259.721016 88.310202 
L 260.045995 86.269325 
L 260.370975 92.255785 
L 261.020934 90.285862 
L 261.345913 85.853839 
L 261.670893 88.20681 
L 261.995872 89.561865 
L 262.320852 88.795409 
L 262.645831 90.409613 
L 262.970811 88.26083 
L 263.29579 82.327358 
L 263.945749 87.897565 
L 264.270729 83.941021 
L 264.595708 86.377172 
L 264.920688 95.331492 
L 265.245667 87.904251 
L 265.570647 89.716261 
L 266.220606 85.501814 
L 266.545586 81.023577 
L 266.870565 83.142992 
L 267.195545 82.401646 
L 267.520524 81.314833 
L 267.845504 87.179198 
L 268.170483 84.044994 
L 268.495463 86.90857 
L 268.820442 86.351979 
L 269.145422 86.200823 
L 269.470401 85.388299 
L 269.795381 86.381293 
L 270.12036 95.973538 
L 270.44534 90.851616 
L 270.770319 92.515266 
L 271.095299 87.021398 
L 271.420278 90.900152 
L 271.745258 83.360535 
L 272.070238 84.085171 
L 272.720197 88.984095 
L 273.045176 90.4404 
L 273.370156 92.839028 
L 273.695135 82.540648 
L 274.020115 88.409535 
L 274.345094 87.790912 
L 274.670074 90.346474 
L 274.995053 80.498574 
L 275.320033 89.396051 
L 275.645012 86.928971 
L 275.969992 90.69072 
L 276.294971 87.451274 
L 276.619951 93.240473 
L 276.94493 91.648421 
L 277.26991 89.356608 
L 277.594889 90.054321 
L 277.919869 85.817212 
L 278.569828 92.741883 
L 278.894808 82.913148 
L 279.219787 85.658569 
L 279.544767 91.343239 
L 279.869746 90.418044 
L 280.194726 87.13413 
L 280.519705 89.203716 
L 280.844685 88.639627 
L 281.169664 84.726215 
L 281.494644 89.238813 
L 281.819623 90.910349 
L 282.144603 86.450634 
L 282.469582 89.495228 
L 282.794562 83.86802 
L 283.119541 90.21001 
L 283.444521 85.264387 
L 283.7695 84.259014 
L 284.09448 83.975362 
L 284.419459 89.824183 
L 284.744439 89.694537 
L 285.394398 85.724312 
L 285.719378 87.486643 
L 286.044357 85.783159 
L 286.369337 82.826156 
L 286.694316 88.805056 
L 287.019296 89.144889 
L 287.344275 86.283364 
L 287.669255 79.8374 
L 288.319214 88.087696 
L 288.644193 88.808305 
L 288.969173 88.11297 
L 289.294152 83.901497 
L 289.619132 89.082466 
L 289.944111 84.527091 
L 290.269091 87.439023 
L 290.59407 85.816636 
L 290.91905 92.33847 
L 291.569009 85.377489 
L 291.893989 90.151131 
L 292.218968 87.045087 
L 292.543948 89.930304 
L 292.868927 83.870822 
L 293.193907 82.200787 
L 293.843866 91.756085 
L 294.168845 87.188078 
L 294.493825 87.173982 
L 294.818804 96.629078 
L 295.143784 83.485852 
L 295.468763 85.686673 
L 295.793743 92.747937 
L 296.118722 86.499455 
L 296.443702 84.269715 
L 296.768681 83.601273 
L 297.093661 87.759813 
L 297.41864 88.00012 
L 297.74362 90.831153 
L 298.0686 83.148844 
L 298.393579 84.501916 
L 298.718559 93.373146 
L 299.043538 79.176298 
L 299.693497 91.61127 
L 300.018477 89.307684 
L 300.343456 89.115165 
L 300.668436 92.98896 
L 300.993415 81.994114 
L 301.318395 86.640749 
L 301.643374 89.079247 
L 301.968354 84.30655 
L 302.293333 87.307228 
L 302.618313 86.304874 
L 302.943292 86.801412 
L 303.268272 82.933848 
L 303.593251 85.743823 
L 303.918231 79.864814 
L 304.24321 89.47315 
L 304.56819 90.204483 
L 304.89317 87.859349 
L 305.218149 92.794238 
L 305.543129 85.385278 
L 305.868108 90.30358 
L 306.193088 87.282167 
L 306.518067 90.75668 
L 306.843047 86.948466 
L 307.168026 87.657026 
L 307.817985 92.27194 
L 308.142965 94.032457 
L 308.792924 80.839027 
L 309.442883 90.986536 
L 309.767862 86.726512 
L 310.092842 89.301294 
L 310.417821 88.808337 
L 310.742801 89.335572 
L 311.067781 88.998762 
L 311.39276 89.935933 
L 311.71774 87.631654 
L 312.042719 87.004598 
L 312.692678 86.606529 
L 313.017658 82.280084 
L 313.342637 82.010475 
L 313.667617 82.798772 
L 313.992596 96.034613 
L 314.642555 81.475806 
L 314.967535 87.66853 
L 315.292514 85.950046 
L 315.617494 90.400164 
L 316.267453 86.143049 
L 316.592432 89.694178 
L 316.917412 85.031656 
L 317.242391 84.855291 
L 317.567371 87.719426 
L 317.892351 83.757822 
L 318.21733 89.000969 
L 318.54231 87.758318 
L 318.867289 85.495321 
L 319.517248 86.87021 
L 319.842228 86.066113 
L 320.167207 85.747209 
L 320.492187 87.738148 
L 320.817166 83.284456 
L 321.142146 85.697139 
L 321.467125 85.683777 
L 321.792105 86.036309 
L 322.117084 90.359153 
L 322.442064 86.06823 
L 322.767043 92.072565 
L 323.092023 82.34633 
L 323.417002 88.203937 
L 323.741982 87.038364 
L 324.066962 86.714351 
L 324.391941 86.726628 
L 324.716921 81.217346 
L 325.36688 87.46231 
L 325.691859 83.514349 
L 326.016839 88.242249 
L 326.666798 82.158797 
L 326.991777 86.78212 
L 327.316757 83.209843 
L 327.641736 87.165747 
L 327.966716 85.90029 
L 328.291695 89.360955 
L 328.616675 82.558287 
L 328.941654 88.447793 
L 329.266634 90.274922 
L 329.591613 88.847506 
L 329.916593 86.91852 
L 330.241572 89.066057 
L 330.566552 88.379918 
L 330.891532 87.310808 
L 331.216511 89.47316 
L 331.541491 88.273499 
L 331.86647 89.226683 
L 332.19145 85.016174 
L 332.516429 87.882697 
L 332.841409 87.458751 
L 333.166388 83.238108 
L 333.816347 94.403038 
L 334.141327 89.121651 
L 334.466306 96.84202 
L 334.791286 86.044284 
L 335.116265 95.939336 
L 335.441245 95.944806 
L 335.766224 88.593709 
L 336.091204 86.008206 
L 336.416183 90.552398 
L 336.741163 93.198274 
L 337.066143 91.600934 
L 337.391122 85.930715 
L 337.716102 93.607153 
L 338.041081 84.459438 
L 338.366061 84.646674 
L 338.69104 80.08437 
L 339.01602 97.500396 
L 339.340999 79.064802 
L 339.665979 84.071846 
L 339.990958 85.861712 
L 340.315938 89.651275 
L 340.640917 90.935788 
L 340.965897 84.925401 
L 341.290876 92.071034 
L 341.615856 90.339072 
L 341.940835 84.740963 
L 342.265815 88.808954 
L 342.590794 89.903797 
L 342.915774 91.874492 
L 343.240753 86.921847 
L 343.565733 86.639486 
L 344.215692 82.465924 
L 344.540672 87.557332 
L 344.865651 84.888412 
L 345.190631 90.273196 
L 345.51561 84.541395 
L 345.84059 87.927145 
L 346.165569 86.24961 
L 346.490549 85.592432 
L 346.815528 87.033025 
L 347.140508 87.864776 
L 347.465487 84.699549 
L 348.115446 89.043963 
L 348.440426 89.562098 
L 348.765405 91.882973 
L 349.090385 85.490995 
L 349.415364 90.923875 
L 349.740344 83.9391 
L 350.065324 88.342522 
L 350.390303 88.347256 
L 350.715283 83.78812 
L 351.040262 86.13204 
L 351.365242 87.136264 
L 351.690221 85.429161 
L 352.015201 90.445091 
L 352.34018 90.063556 
L 352.66516 91.862291 
L 352.990139 84.500765 
L 353.315119 87.61086 
L 353.640098 88.070053 
L 353.965078 87.286388 
L 354.290057 84.999461 
L 354.615037 83.613169 
L 354.940016 92.511078 
L 355.264996 84.099365 
L 355.589975 83.036375 
L 355.914955 90.539333 
L 356.239934 85.648471 
L 356.564914 89.237412 
L 356.889894 86.413456 
L 357.214873 77.530665 
L 357.539853 94.933464 
L 357.864832 94.903642 
L 358.189812 86.370911 
L 358.514791 90.730189 
L 358.839771 88.539553 
L 359.16475 87.114162 
L 359.48973 81.891488 
L 359.814709 88.094439 
L 360.139689 85.576905 
L 360.789648 92.107457 
L 361.114627 86.212917 
L 361.439607 86.155101 
L 362.089566 88.228787 
L 362.414545 85.504382 
L 362.739525 89.512846 
L 363.064505 81.936881 
L 363.389484 84.872403 
L 363.714464 84.379903 
L 364.039443 84.729068 
L 364.364423 83.7007 
L 364.689402 83.604774 
L 365.014382 85.221575 
L 365.339361 94.838805 
L 365.664341 83.83759 
L 365.98932 87.657119 
L 366.3143 86.130147 
L 366.639279 90.229356 
L 367.289238 84.51347 
L 367.614218 84.82665 
L 367.939197 86.556662 
L 368.264177 81.654591 
L 368.589156 87.479573 
L 368.914136 87.574574 
L 369.239115 85.032229 
L 369.564095 88.848358 
L 369.889075 84.283396 
L 370.214054 88.019962 
L 370.539034 89.715369 
L 371.188993 86.78151 
L 371.513972 90.859871 
L 371.838952 86.102161 
L 372.163931 86.920773 
L 372.488911 88.450743 
L 372.81389 88.247624 
L 373.13887 86.887782 
L 373.463849 91.137681 
L 373.788829 87.506929 
L 374.113808 91.187133 
L 374.438788 93.57209 
L 374.763767 93.284754 
L 375.088747 87.30653 
L 375.413726 86.453578 
L 375.738706 81.021596 
L 376.063686 84.248473 
L 376.388665 84.058483 
L 376.713645 86.353035 
L 377.038624 87.571743 
L 377.363604 81.438479 
L 377.688583 92.802073 
L 378.013563 80.768254 
L 378.338542 80.73986 
L 378.663522 89.771791 
L 378.988501 88.866812 
L 379.313481 87.10581 
L 379.63846 90.317282 
L 379.96344 82.459615 
L 380.288419 89.313692 
L 380.613399 85.122168 
L 381.263358 91.262129 
L 381.588337 84.830254 
L 381.913317 90.09886 
L 382.238296 86.439935 
L 382.563276 87.527135 
L 382.888256 90.418611 
L 383.213235 80.289677 
L 383.538215 88.210282 
L 383.863194 90.283156 
L 384.188174 85.918732 
L 384.513153 88.495385 
L 384.838133 85.594734 
L 385.163112 86.716553 
L 385.488092 94.62189 
L 385.813071 83.15402 
L 386.138051 81.271004 
L 386.46303 81.141975 
L 386.78801 89.850889 
L 387.112989 85.531557 
L 387.437969 88.890121 
L 387.762948 89.087068 
L 388.412907 83.407589 
L 388.737887 85.45071 
L 389.062867 88.950174 
L 389.387846 86.803999 
L 389.712826 87.818483 
L 390.037805 91.143478 
L 390.687764 81.15582 
L 391.012744 88.590552 
L 391.337723 87.211712 
L 391.662703 88.626612 
L 391.987682 88.00435 
L 392.312662 84.858588 
L 392.637641 92.608578 
L 392.962621 85.068744 
L 393.2876 87.264843 
L 393.61258 81.607064 
L 393.937559 91.928892 
L 394.262539 89.890838 
L 394.587518 83.808334 
L 394.912498 91.008296 
L 395.237477 90.025891 
L 395.562457 87.674297 
L 395.887437 87.736649 
L 396.212416 87.933524 
L 396.862375 85.773709 
L 397.187355 89.239817 
L 397.512334 83.169515 
L 397.837314 82.630763 
L 398.162293 88.972825 
L 398.487273 88.853396 
L 398.487273 88.853396 
" style="fill:none;stroke:#ff7f0e;stroke-linecap:square;stroke-opacity:0.75;stroke-width:1.5;"/>
   </g>
   <g id="line2d_16">
    <path clip-path="url(#pf13a27d93f)" d="M 73.832727 148.048808 
L 74.807666 226.66138 
L 75.132645 244.947211 
L 75.782604 127.448421 
L 76.107584 161.535011 
L 76.757543 194.758123 
L 77.407502 190.9772 
L 78.057461 169.366114 
L 78.70742 163.291736 
L 79.0324 163.075767 
L 79.357379 167.443414 
L 79.682359 175.547584 
L 80.007338 171.562368 
L 80.332318 175.960454 
L 80.657297 170.787377 
L 80.982277 175.679043 
L 81.307256 166.531184 
L 81.632236 166.674395 
L 81.957215 162.622136 
L 82.282195 163.445905 
L 82.607174 156.021924 
L 82.932154 161.555114 
L 83.257133 161.076124 
L 83.582113 158.550821 
L 83.907093 159.747903 
L 84.232072 159.850949 
L 84.557052 164.906224 
L 85.207011 159.145601 
L 85.53199 158.296039 
L 85.85697 154.612254 
L 86.181949 153.385169 
L 86.506929 153.806902 
L 86.831908 156.758901 
L 87.156888 152.315803 
L 87.481867 156.298579 
L 87.806847 155.171762 
L 88.131826 150.330169 
L 88.456806 148.139149 
L 88.781785 152.857618 
L 89.106765 147.474578 
L 89.431744 154.116358 
L 90.081704 147.594714 
L 90.406683 145.694731 
L 90.731663 149.137194 
L 91.056642 150.416274 
L 91.381622 148.654119 
L 91.706601 148.290938 
L 92.031581 143.433439 
L 92.35656 143.364072 
L 92.68154 144.031756 
L 93.006519 145.34036 
L 93.331499 144.565462 
L 93.656478 147.47044 
L 93.981458 147.402272 
L 94.306437 139.922496 
L 94.631417 145.894147 
L 94.956396 142.764785 
L 95.281376 141.1089 
L 95.606355 141.271575 
L 95.931335 138.786825 
L 96.256314 142.430603 
L 96.581294 140.333447 
L 96.906274 133.65961 
L 97.231253 138.107101 
L 97.556233 145.848328 
L 97.881212 137.817299 
L 98.206192 143.085015 
L 98.531171 141.923159 
L 98.856151 133.417773 
L 99.18113 140.372424 
L 99.50611 142.165975 
L 99.831089 136.883605 
L 100.481048 143.560154 
L 100.806028 132.963214 
L 101.131007 134.878709 
L 101.455987 133.460888 
L 101.780966 135.47551 
L 102.105946 136.160949 
L 102.430925 139.376159 
L 102.755905 138.189434 
L 103.080885 137.629092 
L 103.405864 133.27494 
L 103.730844 130.49041 
L 104.055823 134.708654 
L 104.380803 131.003661 
L 104.705782 129.769404 
L 105.030762 137.111986 
L 105.355741 135.223173 
L 105.680721 131.669856 
L 106.0057 138.048539 
L 106.33068 134.722976 
L 106.655659 137.749444 
L 106.980639 126.984526 
L 107.305618 134.716934 
L 107.630598 134.750907 
L 107.955577 132.763366 
L 108.280557 133.137931 
L 108.605536 134.689614 
L 109.255495 130.947279 
L 109.580475 129.280357 
L 109.905455 130.642606 
L 110.230434 129.85816 
L 110.555414 133.198562 
L 110.880393 132.564183 
L 111.205373 129.684072 
L 111.530352 129.744492 
L 111.855332 131.082728 
L 112.180311 127.802493 
L 112.505291 129.24617 
L 113.15525 129.768935 
L 113.480229 133.75964 
L 113.805209 131.758464 
L 114.130188 128.625452 
L 114.455168 131.089688 
L 114.780147 125.273329 
L 115.105127 127.610043 
L 115.430106 126.431374 
L 115.755086 127.135599 
L 116.080066 124.800307 
L 116.405045 129.027801 
L 116.730025 125.58493 
L 117.055004 125.994415 
L 117.379984 132.633763 
L 118.029943 121.071716 
L 118.354922 125.713498 
L 118.679902 127.764251 
L 119.004881 128.566576 
L 119.329861 125.83713 
L 119.65484 124.95303 
L 119.97982 129.436358 
L 120.304799 125.183453 
L 120.629779 130.734779 
L 120.954758 129.019591 
L 121.604717 124.157298 
L 121.929697 124.682298 
L 122.254676 123.805792 
L 122.579656 127.22272 
L 122.904636 123.941864 
L 123.229615 122.844296 
L 123.554595 127.704506 
L 123.879574 127.844368 
L 124.204554 123.139585 
L 124.529533 121.231278 
L 124.854513 125.405256 
L 125.179492 125.868814 
L 125.504472 123.859893 
L 125.829451 120.175967 
L 126.154431 124.994324 
L 126.47941 123.056856 
L 126.80439 125.600659 
L 127.129369 125.195899 
L 127.454349 125.10284 
L 127.779328 122.697278 
L 128.104308 122.277514 
L 128.429287 124.11528 
L 128.754267 121.465393 
L 129.079247 121.126211 
L 129.404226 123.353687 
L 129.729206 124.368391 
L 130.054185 121.434522 
L 130.379165 120.735661 
L 130.704144 126.391529 
L 131.029124 122.431498 
L 131.354103 123.252579 
L 131.679083 120.937468 
L 132.004062 121.97644 
L 132.329042 122.248248 
L 132.654021 121.06184 
L 132.979001 122.94913 
L 133.30398 123.001251 
L 133.62896 127.322935 
L 133.953939 121.471685 
L 134.278919 121.198684 
L 134.603898 123.871057 
L 134.928878 121.254702 
L 135.253857 120.643838 
L 135.578837 120.317893 
L 135.903817 121.534003 
L 136.228796 119.935635 
L 136.553776 127.385888 
L 136.878755 120.579035 
L 137.203735 124.042827 
L 137.528714 124.153911 
L 137.853694 123.916224 
L 138.178673 123.935832 
L 138.503653 120.065421 
L 138.828632 123.893364 
L 139.153612 122.708723 
L 139.478591 122.002402 
L 139.803571 121.015788 
L 140.12855 120.89329 
L 140.45353 122.68439 
L 140.778509 121.391563 
L 141.103489 120.744605 
L 141.428468 122.708795 
L 141.753448 122.105287 
L 142.078428 119.255404 
L 142.403407 117.7324 
L 142.728387 119.98709 
L 143.053366 123.71292 
L 143.378346 119.408393 
L 143.703325 120.211732 
L 144.028305 121.586057 
L 144.353284 124.192984 
L 144.678264 124.442102 
L 145.003243 124.184221 
L 145.328223 124.251469 
L 145.653202 122.191077 
L 145.978182 126.925407 
L 146.303161 121.361545 
L 146.628141 121.805913 
L 146.95312 120.412574 
L 147.2781 124.860135 
L 147.603079 124.624433 
L 147.928059 121.19939 
L 148.253038 119.333183 
L 148.578018 123.19149 
L 149.227977 117.332349 
L 149.552957 118.092369 
L 150.202916 121.306234 
L 150.527895 119.093375 
L 150.852875 120.182786 
L 151.177854 118.974382 
L 151.502834 122.262691 
L 151.827813 123.894127 
L 152.152793 121.463962 
L 152.477772 120.051493 
L 152.802752 117.70405 
L 153.127731 120.652721 
L 153.452711 118.038552 
L 153.77769 123.621042 
L 154.10267 117.616654 
L 154.427649 116.37514 
L 154.752629 116.743455 
L 155.077609 122.150663 
L 155.402588 124.118172 
L 155.727568 119.483021 
L 156.052547 126.605726 
L 156.377527 123.395125 
L 156.702506 117.899947 
L 157.027486 119.28859 
L 157.352465 115.372251 
L 157.677445 117.040701 
L 158.002424 120.421492 
L 158.327404 121.873505 
L 158.652383 117.073828 
L 158.977363 119.442177 
L 159.302342 120.281581 
L 159.627322 120.043994 
L 159.952301 120.775932 
L 160.277281 121.156849 
L 160.60226 119.321765 
L 160.92724 123.193891 
L 161.252219 118.574444 
L 161.577199 120.364039 
L 161.902179 113.822589 
L 162.227158 116.019579 
L 162.552138 116.426464 
L 162.877117 123.577569 
L 163.202097 117.407154 
L 163.527076 117.223224 
L 163.852056 116.641032 
L 164.177035 120.092841 
L 164.502015 117.314164 
L 164.826994 118.845748 
L 165.151974 115.375373 
L 165.476953 116.984828 
L 165.801933 111.610059 
L 166.126912 122.428294 
L 166.451892 118.593547 
L 166.776871 121.072239 
L 167.101851 117.401197 
L 167.42683 117.602509 
L 167.75181 120.843067 
L 168.07679 119.770086 
L 168.401769 115.01302 
L 168.726749 119.704147 
L 169.051728 116.072774 
L 169.376708 122.772213 
L 169.701687 114.858425 
L 170.026667 118.071838 
L 170.351646 114.833815 
L 170.676626 119.910514 
L 171.001605 120.72311 
L 171.326585 113.745388 
L 171.651564 118.154526 
L 171.976544 120.239885 
L 172.301523 120.767837 
L 172.626503 112.043531 
L 172.951482 124.048928 
L 173.276462 116.211723 
L 173.601441 119.914257 
L 173.926421 119.173344 
L 174.2514 123.955765 
L 174.57638 116.41779 
L 175.226339 118.890172 
L 175.551319 118.593305 
L 175.876298 114.585909 
L 176.201278 116.492369 
L 176.526257 120.93263 
L 176.851237 120.753771 
L 177.176216 117.127718 
L 177.501196 120.743697 
L 177.826175 117.160548 
L 178.151155 118.939019 
L 178.476134 111.467226 
L 178.801114 113.706822 
L 179.126093 118.72777 
L 179.451073 114.684418 
L 179.776052 116.201924 
L 180.101032 116.130006 
L 180.426011 113.347364 
L 180.750991 118.68476 
L 181.075971 116.737522 
L 181.72593 117.458561 
L 182.050909 112.461374 
L 182.375889 120.877741 
L 182.700868 119.233131 
L 183.025848 116.835283 
L 183.350827 118.587186 
L 183.675807 117.217103 
L 184.000786 112.73394 
L 184.325766 119.395764 
L 184.650745 121.27445 
L 184.975725 115.277663 
L 185.300704 112.578897 
L 185.950663 123.804157 
L 186.275643 117.69798 
L 186.600622 117.345985 
L 186.925602 117.752153 
L 187.250581 117.503208 
L 187.575561 120.972103 
L 187.900541 118.633087 
L 188.22552 119.066924 
L 188.5505 122.150111 
L 188.875479 121.378751 
L 189.200459 116.239286 
L 189.525438 119.361927 
L 189.850418 117.705526 
L 190.175397 116.967032 
L 190.500377 117.352672 
L 190.825356 115.920531 
L 191.475315 119.437486 
L 191.800295 117.973901 
L 192.125274 114.193586 
L 192.450254 114.051501 
L 192.775233 118.458733 
L 193.100213 117.664947 
L 193.425192 114.259673 
L 193.750172 114.881536 
L 194.075152 116.952927 
L 194.400131 112.621958 
L 194.725111 117.975329 
L 195.05009 116.291993 
L 195.37507 116.674141 
L 195.700049 120.999819 
L 196.025029 113.976754 
L 196.350008 114.316653 
L 196.674988 116.667814 
L 196.999967 120.651613 
L 197.324947 114.490555 
L 197.649926 120.607326 
L 197.974906 114.850163 
L 198.299885 118.982893 
L 198.624865 118.061292 
L 198.949844 118.527288 
L 199.274824 115.820168 
L 199.599803 114.888569 
L 199.924783 119.069896 
L 200.249762 121.35173 
L 200.574742 116.31421 
L 200.899722 117.292083 
L 201.224701 114.411846 
L 201.549681 116.072366 
L 201.87466 116.098672 
L 202.19964 118.769831 
L 202.524619 116.483385 
L 202.849599 117.596542 
L 203.174578 117.970464 
L 203.499558 115.786494 
L 203.824537 112.326255 
L 204.149517 116.414454 
L 204.474496 117.814324 
L 204.799476 116.459426 
L 205.124455 114.255754 
L 205.449435 114.732621 
L 205.774414 118.336543 
L 206.099394 114.804862 
L 206.424373 113.975605 
L 206.749353 115.746199 
L 207.074333 115.484642 
L 207.399312 117.728867 
L 207.724292 121.443152 
L 208.049271 115.826203 
L 208.374251 115.139332 
L 208.69923 115.352274 
L 209.349189 114.472005 
L 209.674169 119.51789 
L 209.999148 118.506344 
L 210.324128 114.974027 
L 210.649107 116.224681 
L 210.974087 120.191964 
L 211.624046 115.330626 
L 211.949025 117.025847 
L 212.274005 116.547925 
L 212.598984 114.468523 
L 212.923964 117.594551 
L 213.248943 119.114938 
L 213.573923 116.076293 
L 213.898903 120.015915 
L 214.223882 115.318653 
L 214.548862 119.389057 
L 214.873841 120.083078 
L 215.198821 112.064626 
L 215.5238 117.581173 
L 215.84878 116.799437 
L 216.823718 117.523756 
L 217.148698 118.06802 
L 217.473677 114.480159 
L 217.798657 116.721794 
L 218.123636 115.622917 
L 218.448616 116.610624 
L 218.773595 122.315557 
L 219.098575 116.701587 
L 219.423554 113.184069 
L 219.748534 113.821273 
L 220.073514 122.111941 
L 220.398493 114.428465 
L 220.723473 111.833113 
L 221.048452 119.042677 
L 221.373432 111.84779 
L 221.698411 116.609659 
L 222.023391 112.383931 
L 222.67335 118.902562 
L 222.998329 115.601796 
L 223.323309 116.029378 
L 223.648288 112.357767 
L 223.973268 116.725545 
L 224.298247 116.061809 
L 224.623227 114.007258 
L 224.948206 116.323152 
L 225.273186 114.415548 
L 225.598165 120.213701 
L 225.923145 113.199608 
L 226.248124 115.450342 
L 226.573104 109.488649 
L 226.898084 114.785755 
L 227.223063 113.934246 
L 227.548043 118.895103 
L 227.873022 110.679224 
L 228.198002 113.970894 
L 228.522981 113.374705 
L 228.847961 116.775486 
L 229.17294 114.838932 
L 229.49792 115.511588 
L 229.822899 111.929927 
L 230.147879 119.740477 
L 230.472858 120.036022 
L 230.797838 116.135684 
L 231.122817 115.208576 
L 231.447797 120.855467 
L 231.772776 113.418899 
L 232.097756 111.555939 
L 232.747715 116.164732 
L 233.397674 114.335432 
L 233.722654 114.837966 
L 234.047633 112.390932 
L 234.372613 114.469062 
L 234.697592 109.522175 
L 235.022572 111.95908 
L 235.672531 121.540184 
L 235.99751 114.568263 
L 236.32249 112.993425 
L 236.647469 113.245454 
L 236.972449 113.19393 
L 237.297428 113.867905 
L 237.622408 117.754419 
L 237.947387 114.876075 
L 238.272367 110.517494 
L 238.597346 117.628149 
L 238.922326 117.109074 
L 239.247305 112.394926 
L 239.572285 112.383652 
L 239.897265 114.736918 
L 240.222244 112.431429 
L 240.547224 117.331292 
L 240.872203 113.6017 
L 241.197183 114.677311 
L 241.522162 118.306969 
L 241.847142 119.631545 
L 242.172121 110.586534 
L 242.497101 110.552972 
L 242.82208 113.99099 
L 243.14706 115.991651 
L 243.472039 114.435784 
L 243.797019 119.207667 
L 244.121998 111.604322 
L 244.446978 116.313192 
L 244.771957 118.65467 
L 245.096937 113.581025 
L 245.421916 114.889566 
L 245.746896 116.862285 
L 246.396855 112.078342 
L 246.721835 117.411332 
L 247.371794 114.56462 
L 247.696773 113.679178 
L 248.021753 117.303672 
L 248.346732 113.577168 
L 248.671712 116.604388 
L 248.996691 114.031778 
L 249.321671 114.935938 
L 249.64665 109.402638 
L 249.97163 116.054353 
L 250.621589 112.190248 
L 250.946568 118.282857 
L 251.271548 115.826493 
L 251.596527 114.463359 
L 251.921507 115.040904 
L 252.246486 116.944034 
L 252.571466 116.332019 
L 252.896446 113.632873 
L 253.221425 117.546095 
L 253.871384 111.569018 
L 254.196364 113.233155 
L 254.521343 118.112057 
L 254.846323 113.026256 
L 255.496282 117.154335 
L 255.821261 115.514558 
L 256.146241 112.66111 
L 256.7962 116.87573 
L 257.121179 110.828861 
L 257.446159 113.724944 
L 257.771138 111.732463 
L 258.096118 115.6345 
L 258.421097 115.849233 
L 258.746077 113.839387 
L 259.071057 117.599713 
L 259.396036 119.762645 
L 259.721016 119.271512 
L 260.045995 112.517988 
L 260.370975 112.435397 
L 260.695954 116.79601 
L 261.020934 115.147868 
L 261.345913 116.185306 
L 261.670893 118.135319 
L 261.995872 118.276632 
L 262.320852 116.643461 
L 262.645831 118.496122 
L 262.970811 115.993932 
L 263.29579 116.888744 
L 263.62077 115.66598 
L 263.945749 111.059816 
L 264.270729 111.607198 
L 264.595708 116.081866 
L 264.920688 114.539899 
L 265.245667 114.493729 
L 265.570647 116.142103 
L 265.895627 119.136607 
L 266.220606 114.078182 
L 266.545586 116.435448 
L 266.870565 120.249808 
L 267.195545 113.468717 
L 267.520524 117.505441 
L 267.845504 117.226625 
L 268.170483 111.842966 
L 268.495463 119.183795 
L 269.145422 111.994329 
L 269.470401 114.350857 
L 269.795381 113.298039 
L 270.12036 113.076322 
L 270.44534 120.790676 
L 270.770319 113.345384 
L 271.095299 114.263785 
L 271.420278 113.674158 
L 271.745258 118.345118 
L 272.070238 109.797634 
L 272.395217 114.452964 
L 272.720197 112.52401 
L 273.045176 113.170538 
L 273.370156 117.137717 
L 273.695135 110.078458 
L 274.345094 113.178163 
L 274.670074 116.630731 
L 274.995053 115.148957 
L 275.320033 116.099018 
L 275.645012 114.251516 
L 275.969992 106.380914 
L 276.294971 116.258649 
L 276.619951 114.714465 
L 276.94493 112.458375 
L 277.26991 113.893419 
L 277.594889 109.626363 
L 277.919869 114.302905 
L 278.244848 110.49269 
L 278.569828 111.750994 
L 278.894808 108.602691 
L 279.219787 117.005501 
L 279.544767 113.10475 
L 279.869746 111.612815 
L 280.194726 110.804415 
L 280.519705 114.837308 
L 280.844685 115.889644 
L 281.169664 111.076873 
L 281.819623 116.280572 
L 282.144603 111.717364 
L 282.469582 114.183795 
L 282.794562 115.653494 
L 283.119541 114.400486 
L 283.444521 108.612638 
L 283.7695 113.377464 
L 284.09448 115.63429 
L 284.419459 116.28851 
L 284.744439 114.058841 
L 285.069419 114.930223 
L 285.394398 113.309992 
L 285.719378 112.942809 
L 286.044357 113.28009 
L 286.369337 115.996368 
L 286.694316 111.79777 
L 287.019296 111.631391 
L 287.344275 112.824888 
L 287.669255 111.72867 
L 287.994234 115.373051 
L 288.319214 112.292791 
L 288.644193 115.41635 
L 288.969173 111.838219 
L 289.294152 113.970711 
L 289.619132 113.919622 
L 289.944111 114.23521 
L 290.91905 115.718243 
L 291.244029 117.779988 
L 291.569009 113.585197 
L 291.893989 114.155276 
L 292.218968 113.656594 
L 292.543948 117.012263 
L 292.868927 113.286588 
L 293.193907 112.905103 
L 293.518886 115.291304 
L 293.843866 115.125627 
L 294.168845 112.753318 
L 294.493825 112.120078 
L 294.818804 112.201795 
L 295.468763 114.939718 
L 295.793743 114.998481 
L 296.118722 113.204314 
L 296.443702 114.917777 
L 296.768681 114.182893 
L 297.093661 111.341267 
L 297.41864 112.405582 
L 297.74362 111.754551 
L 298.0686 117.644047 
L 298.393579 115.135027 
L 298.718559 117.123042 
L 299.043538 113.333129 
L 299.368518 113.696901 
L 299.693497 115.361319 
L 300.018477 112.183558 
L 300.343456 110.83965 
L 300.668436 117.086438 
L 300.993415 108.165267 
L 301.318395 114.506042 
L 301.643374 116.026949 
L 301.968354 112.823379 
L 302.293333 115.413435 
L 302.618313 113.584111 
L 302.943292 111.08456 
L 303.268272 112.366034 
L 303.593251 112.056244 
L 303.918231 112.965086 
L 304.24321 116.578574 
L 304.56819 113.514205 
L 304.89317 107.379943 
L 305.218149 117.998857 
L 305.543129 118.886825 
L 305.868108 107.413163 
L 306.193088 114.530538 
L 306.843047 116.96682 
L 307.168026 113.181614 
L 307.493006 117.063801 
L 307.817985 112.598937 
L 308.142965 116.175063 
L 308.467944 113.154444 
L 308.792924 113.091292 
L 309.442883 118.601837 
L 309.767862 110.144248 
L 310.092842 115.83134 
L 310.417821 108.996151 
L 310.742801 114.595834 
L 311.067781 113.865176 
L 311.71774 110.443535 
L 312.042719 119.675159 
L 312.367699 116.339115 
L 312.692678 119.593451 
L 313.017658 114.724217 
L 313.342637 115.426855 
L 313.667617 111.84137 
L 313.992596 114.456228 
L 314.642555 110.633286 
L 314.967535 115.61692 
L 315.292514 114.785197 
L 315.617494 117.156991 
L 315.942473 115.148222 
L 316.267453 114.023517 
L 316.592432 114.415634 
L 316.917412 112.465149 
L 317.242391 115.81285 
L 317.567371 112.101014 
L 317.892351 112.706896 
L 318.21733 117.677589 
L 318.54231 112.358295 
L 318.867289 111.227131 
L 319.192269 114.744834 
L 319.517248 111.47144 
L 319.842228 118.271286 
L 320.167207 110.675841 
L 320.492187 111.019962 
L 320.817166 111.753021 
L 321.142146 115.927026 
L 321.467125 115.594264 
L 321.792105 107.539182 
L 322.117084 116.464369 
L 322.442064 118.374522 
L 322.767043 108.819222 
L 323.092023 115.726134 
L 323.417002 117.049489 
L 323.741982 112.99251 
L 324.066962 112.205852 
L 324.391941 109.903596 
L 324.716921 116.986269 
L 325.0419 112.713886 
L 325.36688 114.96571 
L 325.691859 110.794039 
L 326.016839 116.667736 
L 326.341818 110.67773 
L 326.666798 114.29646 
L 326.991777 112.346259 
L 327.316757 111.348513 
L 327.641736 115.477274 
L 327.966716 116.826246 
L 328.291695 110.655887 
L 328.616675 111.515237 
L 328.941654 112.826912 
L 329.266634 115.530355 
L 329.591613 114.495867 
L 329.916593 112.80806 
L 330.241572 116.259887 
L 330.566552 112.162651 
L 330.891532 120.548524 
L 331.216511 116.960862 
L 331.541491 111.088698 
L 331.86647 112.608608 
L 332.19145 108.015175 
L 332.516429 115.393293 
L 332.841409 114.961518 
L 333.166388 116.078802 
L 333.491368 109.8373 
L 333.816347 113.6911 
L 334.141327 112.79852 
L 334.466306 114.247699 
L 334.791286 113.57041 
L 335.116265 116.592458 
L 335.766224 111.843833 
L 336.091204 112.009592 
L 336.416183 114.757754 
L 337.066143 112.438922 
L 337.391122 113.689572 
L 337.716102 111.810055 
L 338.041081 114.528274 
L 338.69104 108.124039 
L 339.01602 117.472374 
L 339.665979 111.024031 
L 339.990958 116.805522 
L 340.315938 109.930821 
L 340.640917 114.420079 
L 340.965897 116.478029 
L 341.615856 110.764959 
L 341.940835 113.780628 
L 342.265815 113.843646 
L 342.590794 111.84558 
L 342.915774 113.590857 
L 343.240753 113.66979 
L 343.565733 114.922205 
L 343.890713 112.052169 
L 344.215692 111.124712 
L 344.865651 112.72569 
L 345.190631 114.979872 
L 345.51561 116.114769 
L 345.84059 109.947486 
L 346.165569 115.702499 
L 346.490549 111.631684 
L 346.815528 115.731836 
L 347.140508 111.702594 
L 347.465487 110.245398 
L 347.790467 110.116357 
L 348.115446 110.809829 
L 348.440426 111.17246 
L 348.765405 112.441697 
L 349.090385 115.827454 
L 349.740344 110.851469 
L 350.390303 116.610058 
L 350.715283 114.675068 
L 351.040262 114.074405 
L 351.690221 110.189346 
L 352.015201 109.041044 
L 352.34018 108.731007 
L 352.66516 113.903456 
L 352.990139 109.822975 
L 353.315119 115.047487 
L 353.640098 115.497963 
L 353.965078 114.07143 
L 354.290057 110.919612 
L 354.615037 111.810622 
L 354.940016 112.197719 
L 355.264996 108.753311 
L 355.589975 112.624272 
L 355.914955 113.554462 
L 356.239934 110.168573 
L 356.564914 114.351929 
L 356.889894 113.102608 
L 357.214873 109.525352 
L 357.539853 114.347784 
L 357.864832 114.225105 
L 358.189812 111.321525 
L 358.514791 112.25101 
L 358.839771 109.567512 
L 359.16475 115.906283 
L 359.48973 109.350745 
L 359.814709 112.442004 
L 360.464668 111.513575 
L 360.789648 112.360446 
L 361.114627 115.021523 
L 361.439607 112.053845 
L 361.764586 112.997761 
L 362.089566 113.573798 
L 362.414545 112.573803 
L 362.739525 114.546047 
L 363.064505 112.889661 
L 363.389484 112.588899 
L 363.714464 112.495193 
L 364.039443 113.116626 
L 364.689402 111.401156 
L 365.014382 113.585835 
L 365.339361 114.805876 
L 365.664341 112.943592 
L 365.98932 114.291748 
L 366.3143 113.851402 
L 366.639279 117.589315 
L 366.964259 112.308606 
L 367.614218 115.372257 
L 367.939197 111.862268 
L 368.264177 111.42021 
L 368.589156 112.036687 
L 368.914136 117.840735 
L 369.239115 114.114015 
L 369.564095 113.061918 
L 369.889075 113.071366 
L 370.214054 114.689612 
L 370.539034 120.576598 
L 370.864013 115.110627 
L 371.188993 115.394963 
L 371.513972 111.298747 
L 371.838952 108.76423 
L 372.163931 111.12857 
L 372.488911 114.97399 
L 372.81389 117.033601 
L 373.463849 106.94915 
L 373.788829 112.653391 
L 374.113808 107.562088 
L 374.438788 114.664101 
L 374.763767 112.639626 
L 375.413726 116.062764 
L 375.738706 115.098804 
L 376.063686 114.517391 
L 376.388665 117.664935 
L 376.713645 113.893932 
L 377.038624 113.993692 
L 377.363604 110.386952 
L 377.688583 112.577125 
L 378.013563 112.51363 
L 378.338542 116.073818 
L 378.663522 117.573507 
L 378.988501 112.266755 
L 379.313481 110.971794 
L 379.63846 112.949892 
L 379.96344 112.656551 
L 380.288419 112.66932 
L 380.613399 110.732802 
L 380.938378 113.978077 
L 381.263358 115.573644 
L 381.588337 116.153837 
L 381.913317 113.00928 
L 382.238296 118.783641 
L 382.563276 110.383997 
L 382.888256 114.62907 
L 383.213235 116.297142 
L 383.538215 112.128445 
L 383.863194 114.335861 
L 384.188174 110.05065 
L 384.513153 111.865414 
L 384.838133 108.645862 
L 385.488092 113.243397 
L 385.813071 114.267807 
L 386.138051 116.566375 
L 386.46303 113.985678 
L 386.78801 114.830065 
L 387.112989 109.42609 
L 387.437969 113.877635 
L 387.762948 114.567565 
L 388.087928 113.684341 
L 388.412907 115.332177 
L 388.737887 115.720296 
L 389.062867 109.312414 
L 389.387846 110.838547 
L 389.712826 119.62974 
L 390.037805 112.10135 
L 390.362785 111.198739 
L 390.687764 111.006233 
L 391.012744 112.649466 
L 391.337723 110.794996 
L 391.662703 117.287435 
L 391.987682 117.410888 
L 392.312662 110.4775 
L 392.637641 111.392667 
L 392.962621 110.898475 
L 393.2876 111.706809 
L 393.61258 117.726806 
L 393.937559 111.419573 
L 394.262539 113.952334 
L 394.587518 108.985901 
L 394.912498 116.132426 
L 395.237477 112.187053 
L 395.562457 113.568297 
L 395.887437 113.087562 
L 396.212416 108.914463 
L 396.537396 113.526361 
L 396.862375 112.202822 
L 397.187355 116.159839 
L 397.512334 112.363839 
L 397.837314 114.535758 
L 398.162293 111.035247 
L 398.487273 109.893096 
L 398.487273 109.893096 
" style="fill:none;stroke:#2ca02c;stroke-linecap:square;stroke-opacity:0.75;stroke-width:1.5;"/>
   </g>
   <g id="patch_3">
    <path d="M 57.6 307.584 
L 57.6 41.472 
" style="fill:none;stroke:#000000;stroke-linecap:square;stroke-linejoin:miter;stroke-width:0.8;"/>
   </g>
   <g id="patch_4">
    <path d="M 414.72 307.584 
L 414.72 41.472 
" style="fill:none;stroke:#000000;stroke-linecap:square;stroke-linejoin:miter;stroke-width:0.8;"/>
   </g>
   <g id="patch_5">
    <path d="M 57.6 307.584 
L 414.72 307.584 
" style="fill:none;stroke:#000000;stroke-linecap:square;stroke-linejoin:miter;stroke-width:0.8;"/>
   </g>
   <g id="patch_6">
    <path d="M 57.6 41.472 
L 414.72 41.472 
" style="fill:none;stroke:#000000;stroke-linecap:square;stroke-linejoin:miter;stroke-width:0.8;"/>
   </g>
   <g id="legend_1">
    <g id="patch_7">
     <path d="M 64.6 302.584 
L 187.11875 302.584 
Q 189.11875 302.584 189.11875 300.584 
L 189.11875 257.549625 
Q 189.11875 255.549625 187.11875 255.549625 
L 64.6 255.549625 
Q 62.6 255.549625 62.6 257.549625 
L 62.6 300.584 
Q 62.6 302.584 64.6 302.584 
z
" style="fill:#ffffff;opacity:0.8;stroke:#cccccc;stroke-linejoin:miter;"/>
    </g>
    <g id="line2d_17">
     <path d="M 66.6 263.648062 
L 86.6 263.648062 
" style="fill:none;stroke:#1f77b4;stroke-linecap:square;stroke-opacity:0.75;stroke-width:1.5;"/>
    </g>
    <g id="line2d_18"/>
    <g id="text_16">
     <!-- Action elimination -->
     <defs>
      <path d="M 48.78125 52.59375 
L 48.78125 44.1875 
Q 44.96875 46.296875 41.140625 47.34375 
Q 37.3125 48.390625 33.40625 48.390625 
Q 24.65625 48.390625 19.8125 42.84375 
Q 14.984375 37.3125 14.984375 27.296875 
Q 14.984375 17.28125 19.8125 11.734375 
Q 24.65625 6.203125 33.40625 6.203125 
Q 37.3125 6.203125 41.140625 7.25 
Q 44.96875 8.296875 48.78125 10.40625 
L 48.78125 2.09375 
Q 45.015625 0.34375 40.984375 -0.53125 
Q 36.96875 -1.421875 32.421875 -1.421875 
Q 20.0625 -1.421875 12.78125 6.34375 
Q 5.515625 14.109375 5.515625 27.296875 
Q 5.515625 40.671875 12.859375 48.328125 
Q 20.21875 56 33.015625 56 
Q 37.15625 56 41.109375 55.140625 
Q 45.0625 54.296875 48.78125 52.59375 
z
" id="DejaVuSans-63"/>
      <path d="M 9.421875 54.6875 
L 18.40625 54.6875 
L 18.40625 0 
L 9.421875 0 
z
M 9.421875 75.984375 
L 18.40625 75.984375 
L 18.40625 64.59375 
L 9.421875 64.59375 
z
" id="DejaVuSans-69"/>
      <path d="M 30.609375 48.390625 
Q 23.390625 48.390625 19.1875 42.75 
Q 14.984375 37.109375 14.984375 27.296875 
Q 14.984375 17.484375 19.15625 11.84375 
Q 23.34375 6.203125 30.609375 6.203125 
Q 37.796875 6.203125 41.984375 11.859375 
Q 46.1875 17.53125 46.1875 27.296875 
Q 46.1875 37.015625 41.984375 42.703125 
Q 37.796875 48.390625 30.609375 48.390625 
z
M 30.609375 56 
Q 42.328125 56 49.015625 48.375 
Q 55.71875 40.765625 55.71875 27.296875 
Q 55.71875 13.875 49.015625 6.21875 
Q 42.328125 -1.421875 30.609375 -1.421875 
Q 18.84375 -1.421875 12.171875 6.21875 
Q 5.515625 13.875 5.515625 27.296875 
Q 5.515625 40.765625 12.171875 48.375 
Q 18.84375 56 30.609375 56 
z
" id="DejaVuSans-6f"/>
      <path d="M 54.890625 33.015625 
L 54.890625 0 
L 45.90625 0 
L 45.90625 32.71875 
Q 45.90625 40.484375 42.875 44.328125 
Q 39.84375 48.1875 33.796875 48.1875 
Q 26.515625 48.1875 22.3125 43.546875 
Q 18.109375 38.921875 18.109375 30.90625 
L 18.109375 0 
L 9.078125 0 
L 9.078125 54.6875 
L 18.109375 54.6875 
L 18.109375 46.1875 
Q 21.34375 51.125 25.703125 53.5625 
Q 30.078125 56 35.796875 56 
Q 45.21875 56 50.046875 50.171875 
Q 54.890625 44.34375 54.890625 33.015625 
z
" id="DejaVuSans-6e"/>
      <path d="M 9.421875 75.984375 
L 18.40625 75.984375 
L 18.40625 0 
L 9.421875 0 
z
" id="DejaVuSans-6c"/>
      <path d="M 52 44.1875 
Q 55.375 50.25 60.0625 53.125 
Q 64.75 56 71.09375 56 
Q 79.640625 56 84.28125 50.015625 
Q 88.921875 44.046875 88.921875 33.015625 
L 88.921875 0 
L 79.890625 0 
L 79.890625 32.71875 
Q 79.890625 40.578125 77.09375 44.375 
Q 74.3125 48.1875 68.609375 48.1875 
Q 61.625 48.1875 57.5625 43.546875 
Q 53.515625 38.921875 53.515625 30.90625 
L 53.515625 0 
L 44.484375 0 
L 44.484375 32.71875 
Q 44.484375 40.625 41.703125 44.40625 
Q 38.921875 48.1875 33.109375 48.1875 
Q 26.21875 48.1875 22.15625 43.53125 
Q 18.109375 38.875 18.109375 30.90625 
L 18.109375 0 
L 9.078125 0 
L 9.078125 54.6875 
L 18.109375 54.6875 
L 18.109375 46.1875 
Q 21.1875 51.21875 25.484375 53.609375 
Q 29.78125 56 35.6875 56 
Q 41.65625 56 45.828125 52.96875 
Q 50 49.953125 52 44.1875 
z
" id="DejaVuSans-6d"/>
     </defs>
     <g transform="translate(94.6 267.148062)scale(0.1 -0.1)">
      <use xlink:href="#DejaVuSans-41"/>
      <use x="68.392578" xlink:href="#DejaVuSans-63"/>
      <use x="123.373047" xlink:href="#DejaVuSans-74"/>
      <use x="162.582031" xlink:href="#DejaVuSans-69"/>
      <use x="190.365234" xlink:href="#DejaVuSans-6f"/>
      <use x="251.546875" xlink:href="#DejaVuSans-6e"/>
      <use x="314.925781" xlink:href="#DejaVuSans-20"/>
      <use x="346.712891" xlink:href="#DejaVuSans-65"/>
      <use x="408.236328" xlink:href="#DejaVuSans-6c"/>
      <use x="436.019531" xlink:href="#DejaVuSans-69"/>
      <use x="463.802734" xlink:href="#DejaVuSans-6d"/>
      <use x="561.214844" xlink:href="#DejaVuSans-69"/>
      <use x="588.998047" xlink:href="#DejaVuSans-6e"/>
      <use x="652.376953" xlink:href="#DejaVuSans-61"/>
      <use x="713.65625" xlink:href="#DejaVuSans-74"/>
      <use x="752.865234" xlink:href="#DejaVuSans-69"/>
      <use x="780.648438" xlink:href="#DejaVuSans-6f"/>
      <use x="841.830078" xlink:href="#DejaVuSans-6e"/>
     </g>
    </g>
    <g id="line2d_19">
     <path d="M 66.6 278.326188 
L 86.6 278.326188 
" style="fill:none;stroke:#ff7f0e;stroke-linecap:square;stroke-opacity:0.75;stroke-width:1.5;"/>
    </g>
    <g id="line2d_20"/>
    <g id="text_17">
     <!-- UCB -->
     <defs>
      <path d="M 8.6875 72.90625 
L 18.609375 72.90625 
L 18.609375 28.609375 
Q 18.609375 16.890625 22.84375 11.734375 
Q 27.09375 6.59375 36.625 6.59375 
Q 46.09375 6.59375 50.34375 11.734375 
Q 54.59375 16.890625 54.59375 28.609375 
L 54.59375 72.90625 
L 64.5 72.90625 
L 64.5 27.390625 
Q 64.5 13.140625 57.4375 5.859375 
Q 50.390625 -1.421875 36.625 -1.421875 
Q 22.796875 -1.421875 15.734375 5.859375 
Q 8.6875 13.140625 8.6875 27.390625 
z
" id="DejaVuSans-55"/>
      <path d="M 64.40625 67.28125 
L 64.40625 56.890625 
Q 59.421875 61.53125 53.78125 63.8125 
Q 48.140625 66.109375 41.796875 66.109375 
Q 29.296875 66.109375 22.65625 58.46875 
Q 16.015625 50.828125 16.015625 36.375 
Q 16.015625 21.96875 22.65625 14.328125 
Q 29.296875 6.6875 41.796875 6.6875 
Q 48.140625 6.6875 53.78125 8.984375 
Q 59.421875 11.28125 64.40625 15.921875 
L 64.40625 5.609375 
Q 59.234375 2.09375 53.4375 0.328125 
Q 47.65625 -1.421875 41.21875 -1.421875 
Q 24.65625 -1.421875 15.125 8.703125 
Q 5.609375 18.84375 5.609375 36.375 
Q 5.609375 53.953125 15.125 64.078125 
Q 24.65625 74.21875 41.21875 74.21875 
Q 47.75 74.21875 53.53125 72.484375 
Q 59.328125 70.75 64.40625 67.28125 
z
" id="DejaVuSans-43"/>
      <path d="M 19.671875 34.8125 
L 19.671875 8.109375 
L 35.5 8.109375 
Q 43.453125 8.109375 47.28125 11.40625 
Q 51.125 14.703125 51.125 21.484375 
Q 51.125 28.328125 47.28125 31.5625 
Q 43.453125 34.8125 35.5 34.8125 
z
M 19.671875 64.796875 
L 19.671875 42.828125 
L 34.28125 42.828125 
Q 41.5 42.828125 45.03125 45.53125 
Q 48.578125 48.25 48.578125 53.8125 
Q 48.578125 59.328125 45.03125 62.0625 
Q 41.5 64.796875 34.28125 64.796875 
z
M 9.8125 72.90625 
L 35.015625 72.90625 
Q 46.296875 72.90625 52.390625 68.21875 
Q 58.5 63.53125 58.5 54.890625 
Q 58.5 48.1875 55.375 44.234375 
Q 52.25 40.28125 46.1875 39.3125 
Q 53.46875 37.75 57.5 32.78125 
Q 61.53125 27.828125 61.53125 20.40625 
Q 61.53125 10.640625 54.890625 5.3125 
Q 48.25 0 35.984375 0 
L 9.8125 0 
z
" id="DejaVuSans-42"/>
     </defs>
     <g transform="translate(94.6 281.826188)scale(0.1 -0.1)">
      <use xlink:href="#DejaVuSans-55"/>
      <use x="73.193359" xlink:href="#DejaVuSans-43"/>
      <use x="143.017578" xlink:href="#DejaVuSans-42"/>
     </g>
    </g>
    <g id="line2d_21">
     <path d="M 66.6 293.004312 
L 86.6 293.004312 
" style="fill:none;stroke:#2ca02c;stroke-linecap:square;stroke-opacity:0.75;stroke-width:1.5;"/>
    </g>
    <g id="line2d_22"/>
    <g id="text_18">
     <!-- LUCB -->
     <defs>
      <path d="M 9.8125 72.90625 
L 19.671875 72.90625 
L 19.671875 8.296875 
L 55.171875 8.296875 
L 55.171875 0 
L 9.8125 0 
z
" id="DejaVuSans-4c"/>
     </defs>
     <g transform="translate(94.6 296.504312)scale(0.1 -0.1)">
      <use xlink:href="#DejaVuSans-4c"/>
      <use x="55.634766" xlink:href="#DejaVuSans-55"/>
      <use x="128.828125" xlink:href="#DejaVuSans-43"/>
      <use x="198.652344" xlink:href="#DejaVuSans-42"/>
     </g>
    </g>
   </g>
  </g>
 </g>
 <defs>
  <clipPath id="pf13a27d93f">
   <rect height="266.112" width="357.12" x="57.6" y="41.472"/>
  </clipPath>
 </defs>
</svg>
