<?xml version="1.0" encoding="utf-8" standalone="no"?>
<!DOCTYPE svg PUBLIC "-//W3C//DTD SVG 1.1//EN"
  "http://www.w3.org/Graphics/SVG/1.1/DTD/svg11.dtd">
<!-- Created with matplotlib (http://matplotlib.org/) -->
<svg height="345.6pt" version="1.1" viewBox="0 0 460.8 345.6" width="460.8pt" xmlns="http://www.w3.org/2000/svg" xmlns:xlink="http://www.w3.org/1999/xlink">
 <defs>
  <style type="text/css">
*{stroke-linecap:butt;stroke-linejoin:round;}
  </style>
 </defs>
 <g id="figure_1">
  <g id="patch_1">
   <path d="M 0 345.6 
L 460.8 345.6 
L 460.8 0 
L 0 0 
z
" style="fill:#ffffff;"/>
  </g>
  <g id="axes_1">
   <g id="patch_2">
    <path d="M 57.6 307.584 
L 414.72 307.584 
L 414.72 41.472 
L 57.6 41.472 
z
" style="fill:#ffffff;"/>
   </g>
   <g id="matplotlib.axis_1">
    <g id="xtick_1">
     <g id="line2d_1">
      <defs>
       <path d="M 0 0 
L 0 3.5 
" id="meff22764f5" style="stroke:#000000;stroke-width:0.8;"/>
      </defs>
      <g>
       <use style="stroke:#000000;stroke-width:0.8;" x="73.832727" xlink:href="#meff22764f5" y="307.584"/>
      </g>
     </g>
     <g id="text_1">
      <!-- 0 -->
      <defs>
       <path d="M 31.78125 66.40625 
Q 24.171875 66.40625 20.328125 58.90625 
Q 16.5 51.421875 16.5 36.375 
Q 16.5 21.390625 20.328125 13.890625 
Q 24.171875 6.390625 31.78125 6.390625 
Q 39.453125 6.390625 43.28125 13.890625 
Q 47.125 21.390625 47.125 36.375 
Q 47.125 51.421875 43.28125 58.90625 
Q 39.453125 66.40625 31.78125 66.40625 
z
M 31.78125 74.21875 
Q 44.046875 74.21875 50.515625 64.515625 
Q 56.984375 54.828125 56.984375 36.375 
Q 56.984375 17.96875 50.515625 8.265625 
Q 44.046875 -1.421875 31.78125 -1.421875 
Q 19.53125 -1.421875 13.0625 8.265625 
Q 6.59375 17.96875 6.59375 36.375 
Q 6.59375 54.828125 13.0625 64.515625 
Q 19.53125 74.21875 31.78125 74.21875 
z
" id="DejaVuSans-30"/>
      </defs>
      <g transform="translate(70.651477 322.182437)scale(0.1 -0.1)">
       <use xlink:href="#DejaVuSans-30"/>
      </g>
     </g>
    </g>
    <g id="xtick_2">
     <g id="line2d_2">
      <g>
       <use style="stroke:#000000;stroke-width:0.8;" x="140.088757" xlink:href="#meff22764f5" y="307.584"/>
      </g>
     </g>
     <g id="text_2">
      <!-- 20 -->
      <defs>
       <path d="M 19.1875 8.296875 
L 53.609375 8.296875 
L 53.609375 0 
L 7.328125 0 
L 7.328125 8.296875 
Q 12.9375 14.109375 22.625 23.890625 
Q 32.328125 33.6875 34.8125 36.53125 
Q 39.546875 41.84375 41.421875 45.53125 
Q 43.3125 49.21875 43.3125 52.78125 
Q 43.3125 58.59375 39.234375 62.25 
Q 35.15625 65.921875 28.609375 65.921875 
Q 23.96875 65.921875 18.8125 64.3125 
Q 13.671875 62.703125 7.8125 59.421875 
L 7.8125 69.390625 
Q 13.765625 71.78125 18.9375 73 
Q 24.125 74.21875 28.421875 74.21875 
Q 39.75 74.21875 46.484375 68.546875 
Q 53.21875 62.890625 53.21875 53.421875 
Q 53.21875 48.921875 51.53125 44.890625 
Q 49.859375 40.875 45.40625 35.40625 
Q 44.1875 33.984375 37.640625 27.21875 
Q 31.109375 20.453125 19.1875 8.296875 
z
" id="DejaVuSans-32"/>
      </defs>
      <g transform="translate(133.726257 322.182437)scale(0.1 -0.1)">
       <use xlink:href="#DejaVuSans-32"/>
       <use x="63.623047" xlink:href="#DejaVuSans-30"/>
      </g>
     </g>
    </g>
    <g id="xtick_3">
     <g id="line2d_3">
      <g>
       <use style="stroke:#000000;stroke-width:0.8;" x="206.344787" xlink:href="#meff22764f5" y="307.584"/>
      </g>
     </g>
     <g id="text_3">
      <!-- 40 -->
      <defs>
       <path d="M 37.796875 64.3125 
L 12.890625 25.390625 
L 37.796875 25.390625 
z
M 35.203125 72.90625 
L 47.609375 72.90625 
L 47.609375 25.390625 
L 58.015625 25.390625 
L 58.015625 17.1875 
L 47.609375 17.1875 
L 47.609375 0 
L 37.796875 0 
L 37.796875 17.1875 
L 4.890625 17.1875 
L 4.890625 26.703125 
z
" id="DejaVuSans-34"/>
      </defs>
      <g transform="translate(199.982287 322.182437)scale(0.1 -0.1)">
       <use xlink:href="#DejaVuSans-34"/>
       <use x="63.623047" xlink:href="#DejaVuSans-30"/>
      </g>
     </g>
    </g>
    <g id="xtick_4">
     <g id="line2d_4">
      <g>
       <use style="stroke:#000000;stroke-width:0.8;" x="272.600816" xlink:href="#meff22764f5" y="307.584"/>
      </g>
     </g>
     <g id="text_4">
      <!-- 60 -->
      <defs>
       <path d="M 33.015625 40.375 
Q 26.375 40.375 22.484375 35.828125 
Q 18.609375 31.296875 18.609375 23.390625 
Q 18.609375 15.53125 22.484375 10.953125 
Q 26.375 6.390625 33.015625 6.390625 
Q 39.65625 6.390625 43.53125 10.953125 
Q 47.40625 15.53125 47.40625 23.390625 
Q 47.40625 31.296875 43.53125 35.828125 
Q 39.65625 40.375 33.015625 40.375 
z
M 52.59375 71.296875 
L 52.59375 62.3125 
Q 48.875 64.0625 45.09375 64.984375 
Q 41.3125 65.921875 37.59375 65.921875 
Q 27.828125 65.921875 22.671875 59.328125 
Q 17.53125 52.734375 16.796875 39.40625 
Q 19.671875 43.65625 24.015625 45.921875 
Q 28.375 48.1875 33.59375 48.1875 
Q 44.578125 48.1875 50.953125 41.515625 
Q 57.328125 34.859375 57.328125 23.390625 
Q 57.328125 12.15625 50.6875 5.359375 
Q 44.046875 -1.421875 33.015625 -1.421875 
Q 20.359375 -1.421875 13.671875 8.265625 
Q 6.984375 17.96875 6.984375 36.375 
Q 6.984375 53.65625 15.1875 63.9375 
Q 23.390625 74.21875 37.203125 74.21875 
Q 40.921875 74.21875 44.703125 73.484375 
Q 48.484375 72.75 52.59375 71.296875 
z
" id="DejaVuSans-36"/>
      </defs>
      <g transform="translate(266.238316 322.182437)scale(0.1 -0.1)">
       <use xlink:href="#DejaVuSans-36"/>
       <use x="63.623047" xlink:href="#DejaVuSans-30"/>
      </g>
     </g>
    </g>
    <g id="xtick_5">
     <g id="line2d_5">
      <g>
       <use style="stroke:#000000;stroke-width:0.8;" x="338.856846" xlink:href="#meff22764f5" y="307.584"/>
      </g>
     </g>
     <g id="text_5">
      <!-- 80 -->
      <defs>
       <path d="M 31.78125 34.625 
Q 24.75 34.625 20.71875 30.859375 
Q 16.703125 27.09375 16.703125 20.515625 
Q 16.703125 13.921875 20.71875 10.15625 
Q 24.75 6.390625 31.78125 6.390625 
Q 38.8125 6.390625 42.859375 10.171875 
Q 46.921875 13.96875 46.921875 20.515625 
Q 46.921875 27.09375 42.890625 30.859375 
Q 38.875 34.625 31.78125 34.625 
z
M 21.921875 38.8125 
Q 15.578125 40.375 12.03125 44.71875 
Q 8.5 49.078125 8.5 55.328125 
Q 8.5 64.0625 14.71875 69.140625 
Q 20.953125 74.21875 31.78125 74.21875 
Q 42.671875 74.21875 48.875 69.140625 
Q 55.078125 64.0625 55.078125 55.328125 
Q 55.078125 49.078125 51.53125 44.71875 
Q 48 40.375 41.703125 38.8125 
Q 48.828125 37.15625 52.796875 32.3125 
Q 56.78125 27.484375 56.78125 20.515625 
Q 56.78125 9.90625 50.3125 4.234375 
Q 43.84375 -1.421875 31.78125 -1.421875 
Q 19.734375 -1.421875 13.25 4.234375 
Q 6.78125 9.90625 6.78125 20.515625 
Q 6.78125 27.484375 10.78125 32.3125 
Q 14.796875 37.15625 21.921875 38.8125 
z
M 18.3125 54.390625 
Q 18.3125 48.734375 21.84375 45.5625 
Q 25.390625 42.390625 31.78125 42.390625 
Q 38.140625 42.390625 41.71875 45.5625 
Q 45.3125 48.734375 45.3125 54.390625 
Q 45.3125 60.0625 41.71875 63.234375 
Q 38.140625 66.40625 31.78125 66.40625 
Q 25.390625 66.40625 21.84375 63.234375 
Q 18.3125 60.0625 18.3125 54.390625 
z
" id="DejaVuSans-38"/>
      </defs>
      <g transform="translate(332.494346 322.182437)scale(0.1 -0.1)">
       <use xlink:href="#DejaVuSans-38"/>
       <use x="63.623047" xlink:href="#DejaVuSans-30"/>
      </g>
     </g>
    </g>
    <g id="xtick_6">
     <g id="line2d_6">
      <g>
       <use style="stroke:#000000;stroke-width:0.8;" x="405.112876" xlink:href="#meff22764f5" y="307.584"/>
      </g>
     </g>
     <g id="text_6">
      <!-- 100 -->
      <defs>
       <path d="M 12.40625 8.296875 
L 28.515625 8.296875 
L 28.515625 63.921875 
L 10.984375 60.40625 
L 10.984375 69.390625 
L 28.421875 72.90625 
L 38.28125 72.90625 
L 38.28125 8.296875 
L 54.390625 8.296875 
L 54.390625 0 
L 12.40625 0 
z
" id="DejaVuSans-31"/>
      </defs>
      <g transform="translate(395.569126 322.182437)scale(0.1 -0.1)">
       <use xlink:href="#DejaVuSans-31"/>
       <use x="63.623047" xlink:href="#DejaVuSans-30"/>
       <use x="127.246094" xlink:href="#DejaVuSans-30"/>
      </g>
     </g>
    </g>
    <g id="text_7">
     <!-- Number of pulls (units of H1) -->
     <defs>
      <path d="M 9.8125 72.90625 
L 23.09375 72.90625 
L 55.421875 11.921875 
L 55.421875 72.90625 
L 64.984375 72.90625 
L 64.984375 0 
L 51.703125 0 
L 19.390625 60.984375 
L 19.390625 0 
L 9.8125 0 
z
" id="DejaVuSans-4e"/>
      <path d="M 8.5 21.578125 
L 8.5 54.6875 
L 17.484375 54.6875 
L 17.484375 21.921875 
Q 17.484375 14.15625 20.5 10.265625 
Q 23.53125 6.390625 29.59375 6.390625 
Q 36.859375 6.390625 41.078125 11.03125 
Q 45.3125 15.671875 45.3125 23.6875 
L 45.3125 54.6875 
L 54.296875 54.6875 
L 54.296875 0 
L 45.3125 0 
L 45.3125 8.40625 
Q 42.046875 3.421875 37.71875 1 
Q 33.40625 -1.421875 27.6875 -1.421875 
Q 18.265625 -1.421875 13.375 4.4375 
Q 8.5 10.296875 8.5 21.578125 
z
M 31.109375 56 
z
" id="DejaVuSans-75"/>
      <path d="M 52 44.1875 
Q 55.375 50.25 60.0625 53.125 
Q 64.75 56 71.09375 56 
Q 79.640625 56 84.28125 50.015625 
Q 88.921875 44.046875 88.921875 33.015625 
L 88.921875 0 
L 79.890625 0 
L 79.890625 32.71875 
Q 79.890625 40.578125 77.09375 44.375 
Q 74.3125 48.1875 68.609375 48.1875 
Q 61.625 48.1875 57.5625 43.546875 
Q 53.515625 38.921875 53.515625 30.90625 
L 53.515625 0 
L 44.484375 0 
L 44.484375 32.71875 
Q 44.484375 40.625 41.703125 44.40625 
Q 38.921875 48.1875 33.109375 48.1875 
Q 26.21875 48.1875 22.15625 43.53125 
Q 18.109375 38.875 18.109375 30.90625 
L 18.109375 0 
L 9.078125 0 
L 9.078125 54.6875 
L 18.109375 54.6875 
L 18.109375 46.1875 
Q 21.1875 51.21875 25.484375 53.609375 
Q 29.78125 56 35.6875 56 
Q 41.65625 56 45.828125 52.96875 
Q 50 49.953125 52 44.1875 
z
" id="DejaVuSans-6d"/>
      <path d="M 48.6875 27.296875 
Q 48.6875 37.203125 44.609375 42.84375 
Q 40.53125 48.484375 33.40625 48.484375 
Q 26.265625 48.484375 22.1875 42.84375 
Q 18.109375 37.203125 18.109375 27.296875 
Q 18.109375 17.390625 22.1875 11.75 
Q 26.265625 6.109375 33.40625 6.109375 
Q 40.53125 6.109375 44.609375 11.75 
Q 48.6875 17.390625 48.6875 27.296875 
z
M 18.109375 46.390625 
Q 20.953125 51.265625 25.265625 53.625 
Q 29.59375 56 35.59375 56 
Q 45.5625 56 51.78125 48.09375 
Q 58.015625 40.1875 58.015625 27.296875 
Q 58.015625 14.40625 51.78125 6.484375 
Q 45.5625 -1.421875 35.59375 -1.421875 
Q 29.59375 -1.421875 25.265625 0.953125 
Q 20.953125 3.328125 18.109375 8.203125 
L 18.109375 0 
L 9.078125 0 
L 9.078125 75.984375 
L 18.109375 75.984375 
z
" id="DejaVuSans-62"/>
      <path d="M 56.203125 29.59375 
L 56.203125 25.203125 
L 14.890625 25.203125 
Q 15.484375 15.921875 20.484375 11.0625 
Q 25.484375 6.203125 34.421875 6.203125 
Q 39.59375 6.203125 44.453125 7.46875 
Q 49.3125 8.734375 54.109375 11.28125 
L 54.109375 2.78125 
Q 49.265625 0.734375 44.1875 -0.34375 
Q 39.109375 -1.421875 33.890625 -1.421875 
Q 20.796875 -1.421875 13.15625 6.1875 
Q 5.515625 13.8125 5.515625 26.8125 
Q 5.515625 40.234375 12.765625 48.109375 
Q 20.015625 56 32.328125 56 
Q 43.359375 56 49.78125 48.890625 
Q 56.203125 41.796875 56.203125 29.59375 
z
M 47.21875 32.234375 
Q 47.125 39.59375 43.09375 43.984375 
Q 39.0625 48.390625 32.421875 48.390625 
Q 24.90625 48.390625 20.390625 44.140625 
Q 15.875 39.890625 15.1875 32.171875 
z
" id="DejaVuSans-65"/>
      <path d="M 41.109375 46.296875 
Q 39.59375 47.171875 37.8125 47.578125 
Q 36.03125 48 33.890625 48 
Q 26.265625 48 22.1875 43.046875 
Q 18.109375 38.09375 18.109375 28.8125 
L 18.109375 0 
L 9.078125 0 
L 9.078125 54.6875 
L 18.109375 54.6875 
L 18.109375 46.1875 
Q 20.953125 51.171875 25.484375 53.578125 
Q 30.03125 56 36.53125 56 
Q 37.453125 56 38.578125 55.875 
Q 39.703125 55.765625 41.0625 55.515625 
z
" id="DejaVuSans-72"/>
      <path id="DejaVuSans-20"/>
      <path d="M 30.609375 48.390625 
Q 23.390625 48.390625 19.1875 42.75 
Q 14.984375 37.109375 14.984375 27.296875 
Q 14.984375 17.484375 19.15625 11.84375 
Q 23.34375 6.203125 30.609375 6.203125 
Q 37.796875 6.203125 41.984375 11.859375 
Q 46.1875 17.53125 46.1875 27.296875 
Q 46.1875 37.015625 41.984375 42.703125 
Q 37.796875 48.390625 30.609375 48.390625 
z
M 30.609375 56 
Q 42.328125 56 49.015625 48.375 
Q 55.71875 40.765625 55.71875 27.296875 
Q 55.71875 13.875 49.015625 6.21875 
Q 42.328125 -1.421875 30.609375 -1.421875 
Q 18.84375 -1.421875 12.171875 6.21875 
Q 5.515625 13.875 5.515625 27.296875 
Q 5.515625 40.765625 12.171875 48.375 
Q 18.84375 56 30.609375 56 
z
" id="DejaVuSans-6f"/>
      <path d="M 37.109375 75.984375 
L 37.109375 68.5 
L 28.515625 68.5 
Q 23.6875 68.5 21.796875 66.546875 
Q 19.921875 64.59375 19.921875 59.515625 
L 19.921875 54.6875 
L 34.71875 54.6875 
L 34.71875 47.703125 
L 19.921875 47.703125 
L 19.921875 0 
L 10.890625 0 
L 10.890625 47.703125 
L 2.296875 47.703125 
L 2.296875 54.6875 
L 10.890625 54.6875 
L 10.890625 58.5 
Q 10.890625 67.625 15.140625 71.796875 
Q 19.390625 75.984375 28.609375 75.984375 
z
" id="DejaVuSans-66"/>
      <path d="M 18.109375 8.203125 
L 18.109375 -20.796875 
L 9.078125 -20.796875 
L 9.078125 54.6875 
L 18.109375 54.6875 
L 18.109375 46.390625 
Q 20.953125 51.265625 25.265625 53.625 
Q 29.59375 56 35.59375 56 
Q 45.5625 56 51.78125 48.09375 
Q 58.015625 40.1875 58.015625 27.296875 
Q 58.015625 14.40625 51.78125 6.484375 
Q 45.5625 -1.421875 35.59375 -1.421875 
Q 29.59375 -1.421875 25.265625 0.953125 
Q 20.953125 3.328125 18.109375 8.203125 
z
M 48.6875 27.296875 
Q 48.6875 37.203125 44.609375 42.84375 
Q 40.53125 48.484375 33.40625 48.484375 
Q 26.265625 48.484375 22.1875 42.84375 
Q 18.109375 37.203125 18.109375 27.296875 
Q 18.109375 17.390625 22.1875 11.75 
Q 26.265625 6.109375 33.40625 6.109375 
Q 40.53125 6.109375 44.609375 11.75 
Q 48.6875 17.390625 48.6875 27.296875 
z
" id="DejaVuSans-70"/>
      <path d="M 9.421875 75.984375 
L 18.40625 75.984375 
L 18.40625 0 
L 9.421875 0 
z
" id="DejaVuSans-6c"/>
      <path d="M 44.28125 53.078125 
L 44.28125 44.578125 
Q 40.484375 46.53125 36.375 47.5 
Q 32.28125 48.484375 27.875 48.484375 
Q 21.1875 48.484375 17.84375 46.4375 
Q 14.5 44.390625 14.5 40.28125 
Q 14.5 37.15625 16.890625 35.375 
Q 19.28125 33.59375 26.515625 31.984375 
L 29.59375 31.296875 
Q 39.15625 29.25 43.1875 25.515625 
Q 47.21875 21.78125 47.21875 15.09375 
Q 47.21875 7.46875 41.1875 3.015625 
Q 35.15625 -1.421875 24.609375 -1.421875 
Q 20.21875 -1.421875 15.453125 -0.5625 
Q 10.6875 0.296875 5.421875 2 
L 5.421875 11.28125 
Q 10.40625 8.6875 15.234375 7.390625 
Q 20.0625 6.109375 24.8125 6.109375 
Q 31.15625 6.109375 34.5625 8.28125 
Q 37.984375 10.453125 37.984375 14.40625 
Q 37.984375 18.0625 35.515625 20.015625 
Q 33.0625 21.96875 24.703125 23.78125 
L 21.578125 24.515625 
Q 13.234375 26.265625 9.515625 29.90625 
Q 5.8125 33.546875 5.8125 39.890625 
Q 5.8125 47.609375 11.28125 51.796875 
Q 16.75 56 26.8125 56 
Q 31.78125 56 36.171875 55.265625 
Q 40.578125 54.546875 44.28125 53.078125 
z
" id="DejaVuSans-73"/>
      <path d="M 31 75.875 
Q 24.46875 64.65625 21.28125 53.65625 
Q 18.109375 42.671875 18.109375 31.390625 
Q 18.109375 20.125 21.3125 9.0625 
Q 24.515625 -2 31 -13.1875 
L 23.1875 -13.1875 
Q 15.875 -1.703125 12.234375 9.375 
Q 8.59375 20.453125 8.59375 31.390625 
Q 8.59375 42.28125 12.203125 53.3125 
Q 15.828125 64.359375 23.1875 75.875 
z
" id="DejaVuSans-28"/>
      <path d="M 54.890625 33.015625 
L 54.890625 0 
L 45.90625 0 
L 45.90625 32.71875 
Q 45.90625 40.484375 42.875 44.328125 
Q 39.84375 48.1875 33.796875 48.1875 
Q 26.515625 48.1875 22.3125 43.546875 
Q 18.109375 38.921875 18.109375 30.90625 
L 18.109375 0 
L 9.078125 0 
L 9.078125 54.6875 
L 18.109375 54.6875 
L 18.109375 46.1875 
Q 21.34375 51.125 25.703125 53.5625 
Q 30.078125 56 35.796875 56 
Q 45.21875 56 50.046875 50.171875 
Q 54.890625 44.34375 54.890625 33.015625 
z
" id="DejaVuSans-6e"/>
      <path d="M 9.421875 54.6875 
L 18.40625 54.6875 
L 18.40625 0 
L 9.421875 0 
z
M 9.421875 75.984375 
L 18.40625 75.984375 
L 18.40625 64.59375 
L 9.421875 64.59375 
z
" id="DejaVuSans-69"/>
      <path d="M 18.3125 70.21875 
L 18.3125 54.6875 
L 36.8125 54.6875 
L 36.8125 47.703125 
L 18.3125 47.703125 
L 18.3125 18.015625 
Q 18.3125 11.328125 20.140625 9.421875 
Q 21.96875 7.515625 27.59375 7.515625 
L 36.8125 7.515625 
L 36.8125 0 
L 27.59375 0 
Q 17.1875 0 13.234375 3.875 
Q 9.28125 7.765625 9.28125 18.015625 
L 9.28125 47.703125 
L 2.6875 47.703125 
L 2.6875 54.6875 
L 9.28125 54.6875 
L 9.28125 70.21875 
z
" id="DejaVuSans-74"/>
      <path d="M 9.8125 72.90625 
L 19.671875 72.90625 
L 19.671875 43.015625 
L 55.515625 43.015625 
L 55.515625 72.90625 
L 65.375 72.90625 
L 65.375 0 
L 55.515625 0 
L 55.515625 34.71875 
L 19.671875 34.71875 
L 19.671875 0 
L 9.8125 0 
z
" id="DejaVuSans-48"/>
      <path d="M 8.015625 75.875 
L 15.828125 75.875 
Q 23.140625 64.359375 26.78125 53.3125 
Q 30.421875 42.28125 30.421875 31.390625 
Q 30.421875 20.453125 26.78125 9.375 
Q 23.140625 -1.703125 15.828125 -13.1875 
L 8.015625 -13.1875 
Q 14.5 -2 17.703125 9.0625 
Q 20.90625 20.125 20.90625 31.390625 
Q 20.90625 42.671875 17.703125 53.65625 
Q 14.5 64.65625 8.015625 75.875 
z
" id="DejaVuSans-29"/>
     </defs>
     <g transform="translate(163.629531 335.860562)scale(0.1 -0.1)">
      <use xlink:href="#DejaVuSans-4e"/>
      <use x="74.804688" xlink:href="#DejaVuSans-75"/>
      <use x="138.183594" xlink:href="#DejaVuSans-6d"/>
      <use x="235.595703" xlink:href="#DejaVuSans-62"/>
      <use x="299.072266" xlink:href="#DejaVuSans-65"/>
      <use x="360.595703" xlink:href="#DejaVuSans-72"/>
      <use x="401.708984" xlink:href="#DejaVuSans-20"/>
      <use x="433.496094" xlink:href="#DejaVuSans-6f"/>
      <use x="494.677734" xlink:href="#DejaVuSans-66"/>
      <use x="529.882812" xlink:href="#DejaVuSans-20"/>
      <use x="561.669922" xlink:href="#DejaVuSans-70"/>
      <use x="625.146484" xlink:href="#DejaVuSans-75"/>
      <use x="688.525391" xlink:href="#DejaVuSans-6c"/>
      <use x="716.308594" xlink:href="#DejaVuSans-6c"/>
      <use x="744.091797" xlink:href="#DejaVuSans-73"/>
      <use x="796.191406" xlink:href="#DejaVuSans-20"/>
      <use x="827.978516" xlink:href="#DejaVuSans-28"/>
      <use x="866.992188" xlink:href="#DejaVuSans-75"/>
      <use x="930.371094" xlink:href="#DejaVuSans-6e"/>
      <use x="993.75" xlink:href="#DejaVuSans-69"/>
      <use x="1021.533203" xlink:href="#DejaVuSans-74"/>
      <use x="1060.742188" xlink:href="#DejaVuSans-73"/>
      <use x="1112.841797" xlink:href="#DejaVuSans-20"/>
      <use x="1144.628906" xlink:href="#DejaVuSans-6f"/>
      <use x="1205.810547" xlink:href="#DejaVuSans-66"/>
      <use x="1241.015625" xlink:href="#DejaVuSans-20"/>
      <use x="1272.802734" xlink:href="#DejaVuSans-48"/>
      <use x="1347.998047" xlink:href="#DejaVuSans-31"/>
      <use x="1411.621094" xlink:href="#DejaVuSans-29"/>
     </g>
    </g>
   </g>
   <g id="matplotlib.axis_2">
    <g id="ytick_1">
     <g id="line2d_7">
      <defs>
       <path d="M 0 0 
L -3.5 0 
" id="mf8b6064cba" style="stroke:#000000;stroke-width:0.8;"/>
      </defs>
      <g>
       <use style="stroke:#000000;stroke-width:0.8;" x="57.6" xlink:href="#mf8b6064cba" y="295.488"/>
      </g>
     </g>
     <g id="text_8">
      <!-- 0.0 -->
      <defs>
       <path d="M 10.6875 12.40625 
L 21 12.40625 
L 21 0 
L 10.6875 0 
z
" id="DejaVuSans-2e"/>
      </defs>
      <g transform="translate(34.696875 299.287219)scale(0.1 -0.1)">
       <use xlink:href="#DejaVuSans-30"/>
       <use x="63.623047" xlink:href="#DejaVuSans-2e"/>
       <use x="95.410156" xlink:href="#DejaVuSans-30"/>
      </g>
     </g>
    </g>
    <g id="ytick_2">
     <g id="line2d_8">
      <g>
       <use style="stroke:#000000;stroke-width:0.8;" x="57.6" xlink:href="#mf8b6064cba" y="247.104"/>
      </g>
     </g>
     <g id="text_9">
      <!-- 0.2 -->
      <g transform="translate(34.696875 250.903219)scale(0.1 -0.1)">
       <use xlink:href="#DejaVuSans-30"/>
       <use x="63.623047" xlink:href="#DejaVuSans-2e"/>
       <use x="95.410156" xlink:href="#DejaVuSans-32"/>
      </g>
     </g>
    </g>
    <g id="ytick_3">
     <g id="line2d_9">
      <g>
       <use style="stroke:#000000;stroke-width:0.8;" x="57.6" xlink:href="#mf8b6064cba" y="198.72"/>
      </g>
     </g>
     <g id="text_10">
      <!-- 0.4 -->
      <g transform="translate(34.696875 202.519219)scale(0.1 -0.1)">
       <use xlink:href="#DejaVuSans-30"/>
       <use x="63.623047" xlink:href="#DejaVuSans-2e"/>
       <use x="95.410156" xlink:href="#DejaVuSans-34"/>
      </g>
     </g>
    </g>
    <g id="ytick_4">
     <g id="line2d_10">
      <g>
       <use style="stroke:#000000;stroke-width:0.8;" x="57.6" xlink:href="#mf8b6064cba" y="150.336"/>
      </g>
     </g>
     <g id="text_11">
      <!-- 0.6 -->
      <g transform="translate(34.696875 154.135219)scale(0.1 -0.1)">
       <use xlink:href="#DejaVuSans-30"/>
       <use x="63.623047" xlink:href="#DejaVuSans-2e"/>
       <use x="95.410156" xlink:href="#DejaVuSans-36"/>
      </g>
     </g>
    </g>
    <g id="ytick_5">
     <g id="line2d_11">
      <g>
       <use style="stroke:#000000;stroke-width:0.8;" x="57.6" xlink:href="#mf8b6064cba" y="101.952"/>
      </g>
     </g>
     <g id="text_12">
      <!-- 0.8 -->
      <g transform="translate(34.696875 105.751219)scale(0.1 -0.1)">
       <use xlink:href="#DejaVuSans-30"/>
       <use x="63.623047" xlink:href="#DejaVuSans-2e"/>
       <use x="95.410156" xlink:href="#DejaVuSans-38"/>
      </g>
     </g>
    </g>
    <g id="ytick_6">
     <g id="line2d_12">
      <g>
       <use style="stroke:#000000;stroke-width:0.8;" x="57.6" xlink:href="#mf8b6064cba" y="53.568"/>
      </g>
     </g>
     <g id="text_13">
      <!-- 1.0 -->
      <g transform="translate(34.696875 57.367219)scale(0.1 -0.1)">
       <use xlink:href="#DejaVuSans-31"/>
       <use x="63.623047" xlink:href="#DejaVuSans-2e"/>
       <use x="95.410156" xlink:href="#DejaVuSans-30"/>
      </g>
     </g>
    </g>
    <g id="text_14">
     <!-- Pull probability -->
     <defs>
      <path d="M 19.671875 64.796875 
L 19.671875 37.40625 
L 32.078125 37.40625 
Q 38.96875 37.40625 42.71875 40.96875 
Q 46.484375 44.53125 46.484375 51.125 
Q 46.484375 57.671875 42.71875 61.234375 
Q 38.96875 64.796875 32.078125 64.796875 
z
M 9.8125 72.90625 
L 32.078125 72.90625 
Q 44.34375 72.90625 50.609375 67.359375 
Q 56.890625 61.8125 56.890625 51.125 
Q 56.890625 40.328125 50.609375 34.8125 
Q 44.34375 29.296875 32.078125 29.296875 
L 19.671875 29.296875 
L 19.671875 0 
L 9.8125 0 
z
" id="DejaVuSans-50"/>
      <path d="M 34.28125 27.484375 
Q 23.390625 27.484375 19.1875 25 
Q 14.984375 22.515625 14.984375 16.5 
Q 14.984375 11.71875 18.140625 8.90625 
Q 21.296875 6.109375 26.703125 6.109375 
Q 34.1875 6.109375 38.703125 11.40625 
Q 43.21875 16.703125 43.21875 25.484375 
L 43.21875 27.484375 
z
M 52.203125 31.203125 
L 52.203125 0 
L 43.21875 0 
L 43.21875 8.296875 
Q 40.140625 3.328125 35.546875 0.953125 
Q 30.953125 -1.421875 24.3125 -1.421875 
Q 15.921875 -1.421875 10.953125 3.296875 
Q 6 8.015625 6 15.921875 
Q 6 25.140625 12.171875 29.828125 
Q 18.359375 34.515625 30.609375 34.515625 
L 43.21875 34.515625 
L 43.21875 35.40625 
Q 43.21875 41.609375 39.140625 45 
Q 35.0625 48.390625 27.6875 48.390625 
Q 23 48.390625 18.546875 47.265625 
Q 14.109375 46.140625 10.015625 43.890625 
L 10.015625 52.203125 
Q 14.9375 54.109375 19.578125 55.046875 
Q 24.21875 56 28.609375 56 
Q 40.484375 56 46.34375 49.84375 
Q 52.203125 43.703125 52.203125 31.203125 
z
" id="DejaVuSans-61"/>
      <path d="M 32.171875 -5.078125 
Q 28.375 -14.84375 24.75 -17.8125 
Q 21.140625 -20.796875 15.09375 -20.796875 
L 7.90625 -20.796875 
L 7.90625 -13.28125 
L 13.1875 -13.28125 
Q 16.890625 -13.28125 18.9375 -11.515625 
Q 21 -9.765625 23.484375 -3.21875 
L 25.09375 0.875 
L 2.984375 54.6875 
L 12.5 54.6875 
L 29.59375 11.921875 
L 46.6875 54.6875 
L 56.203125 54.6875 
z
" id="DejaVuSans-79"/>
     </defs>
     <g transform="translate(28.617187 211.864719)rotate(-90)scale(0.1 -0.1)">
      <use xlink:href="#DejaVuSans-50"/>
      <use x="60.287109" xlink:href="#DejaVuSans-75"/>
      <use x="123.666016" xlink:href="#DejaVuSans-6c"/>
      <use x="151.449219" xlink:href="#DejaVuSans-6c"/>
      <use x="179.232422" xlink:href="#DejaVuSans-20"/>
      <use x="211.019531" xlink:href="#DejaVuSans-70"/>
      <use x="274.496094" xlink:href="#DejaVuSans-72"/>
      <use x="315.578125" xlink:href="#DejaVuSans-6f"/>
      <use x="376.759766" xlink:href="#DejaVuSans-62"/>
      <use x="440.236328" xlink:href="#DejaVuSans-61"/>
      <use x="501.515625" xlink:href="#DejaVuSans-62"/>
      <use x="564.992188" xlink:href="#DejaVuSans-69"/>
      <use x="592.775391" xlink:href="#DejaVuSans-6c"/>
      <use x="620.558594" xlink:href="#DejaVuSans-69"/>
      <use x="648.341797" xlink:href="#DejaVuSans-74"/>
      <use x="687.550781" xlink:href="#DejaVuSans-79"/>
     </g>
    </g>
   </g>
   <g id="line2d_13">
    <path clip-path="url(#p8760b7cadc)" d="M 73.832727 231.712657 
L 77.145529 203.39821 
L 80.45833 188.271671 
L 83.771132 180.795036 
L 87.083933 177.385271 
L 90.396735 175.972982 
L 93.709536 175.25376 
L 97.022338 174.907226 
L 100.335139 174.756843 
L 103.647941 174.642422 
L 106.960742 174.583576 
L 110.273544 174.573769 
L 113.586345 174.547615 
L 116.899147 174.554154 
L 120.211948 174.557423 
L 123.52475 174.560692 
L 126.837551 174.534538 
L 130.150353 174.537808 
L 133.463154 174.534538 
L 136.775955 174.528 
L 140.088757 174.528 
L 143.401558 174.528 
L 146.71436 174.528 
L 150.027161 174.528 
L 153.339963 174.528 
L 156.652764 174.528 
L 159.965566 174.531269 
L 163.278367 174.528 
L 166.591169 174.528 
L 169.90397 174.528 
L 173.216772 174.528 
L 176.529573 174.528 
L 179.842375 174.528 
L 183.155176 174.531269 
L 186.467978 174.528 
L 189.780779 174.528 
L 193.093581 174.528 
L 196.406382 174.528 
L 199.719184 174.528 
L 203.031985 174.528 
L 206.344787 174.528 
L 209.657588 174.472396 
L 212.97039 174.441279 
L 216.283191 174.223114 
L 219.595993 173.593023 
L 222.908794 172.340865 
L 226.221596 170.045128 
L 229.534397 166.228755 
L 232.847199 161.084631 
L 236.16 155.223636 
L 239.472801 147.650043 
L 242.785603 137.060525 
L 246.098404 125.342694 
L 249.411206 113.483376 
L 252.724007 102.060904 
L 256.036809 91.716058 
L 259.34961 82.498146 
L 262.662412 73.486324 
L 265.975213 68.608922 
L 269.288015 64.562972 
L 272.600816 61.053825 
L 275.913618 59.169343 
L 279.226419 57.711067 
L 282.539221 56.436617 
L 285.852022 56.353539 
L 289.164824 55.956603 
L 292.477625 55.610029 
L 295.790427 55.152855 
L 299.103228 54.396196 
L 302.41603 54.149003 
L 305.728831 53.810872 
L 309.041633 53.759886 
L 312.354434 53.568 
L 315.667236 53.568 
L 318.980037 53.568 
L 322.292839 53.568 
L 325.60564 53.568 
L 328.918442 53.568 
L 332.231243 53.568 
L 335.544045 53.568 
L 338.856846 53.568 
L 342.169647 53.568 
L 345.482449 53.568 
L 348.79525 53.568 
L 352.108052 53.568 
L 355.420853 53.568 
L 358.733655 53.568 
L 362.046456 53.568 
L 365.359258 53.568 
L 368.672059 53.568 
L 371.984861 53.568 
L 375.297662 53.568 
L 378.610464 53.568 
L 381.923265 53.568 
L 385.236067 53.568 
L 388.548868 53.568 
L 391.86167 53.568 
L 395.174471 53.568 
L 398.487273 53.568 
" style="fill:none;stroke:#1f77b4;stroke-linecap:square;stroke-width:1.5;"/>
   </g>
   <g id="line2d_14">
    <path clip-path="url(#p8760b7cadc)" d="M 73.832727 244.652108 
L 77.145529 235.109345 
L 80.45833 229.110383 
L 83.771132 224.52371 
L 87.083933 219.087049 
L 90.396735 215.726322 
L 93.709536 212.891935 
L 97.022338 210.041202 
L 100.335139 207.442197 
L 103.647941 205.745488 
L 106.960742 205.258378 
L 110.273544 205.487222 
L 113.586345 203.417825 
L 116.899147 200.867857 
L 120.211948 201.037855 
L 123.52475 200.25325 
L 126.837551 199.360761 
L 130.150353 198.03347 
L 133.463154 198.55981 
L 136.775955 198.118469 
L 140.088757 197.922318 
L 143.401558 196.627719 
L 146.71436 195.496579 
L 150.027161 195.231775 
L 153.339963 195.859459 
L 156.652764 196.202724 
L 159.965566 195.29389 
L 163.278367 194.973509 
L 166.591169 195.078123 
L 169.90397 195.169661 
L 173.216772 194.025444 
L 176.529573 194.339286 
L 179.842375 194.813319 
L 183.155176 194.401401 
L 186.467978 194.522361 
L 189.780779 194.241211 
L 193.093581 195.025816 
L 196.406382 195.065046 
L 199.719184 193.672372 
L 203.031985 193.848908 
L 206.344787 193.829293 
L 209.657588 194.593708 
L 212.97039 193.956828 
L 216.283191 194.67136 
L 219.595993 194.686543 
L 222.908794 196.321496 
L 226.221596 197.766001 
L 229.534397 201.343569 
L 232.847199 206.808939 
L 236.16 213.173966 
L 239.472801 219.54222 
L 242.785603 229.165581 
L 246.098404 239.267132 
L 249.411206 250.981222 
L 252.724007 260.05967 
L 256.036809 267.557547 
L 259.34961 274.674445 
L 262.662412 282.553202 
L 265.975213 286.406067 
L 269.288015 289.615333 
L 272.600816 292.01878 
L 275.913618 293.686874 
L 279.226419 294.004475 
L 282.539221 294.783768 
L 285.852022 294.79644 
L 289.164824 295.015648 
L 292.477625 295.254602 
L 295.790427 295.247665 
L 299.103228 295.246693 
L 302.41603 295.246314 
L 305.728831 295.251705 
L 309.041633 295.296114 
L 312.354434 295.488 
L 315.667236 295.488 
L 318.980037 295.488 
L 322.292839 295.488 
L 325.60564 295.488 
L 328.918442 295.488 
L 332.231243 295.488 
L 335.544045 295.488 
L 338.856846 295.488 
L 342.169647 295.488 
L 345.482449 295.488 
L 348.79525 295.488 
L 352.108052 295.488 
L 355.420853 295.488 
L 358.733655 295.488 
L 362.046456 295.488 
L 365.359258 295.488 
L 368.672059 295.488 
L 371.984861 295.488 
L 375.297662 295.488 
L 378.610464 295.488 
L 381.923265 295.488 
L 385.236067 295.488 
L 388.548868 295.488 
L 391.86167 295.488 
L 395.174471 295.488 
L 398.487273 295.488 
" style="fill:none;stroke:#ff7f0e;stroke-linecap:square;stroke-width:1.5;"/>
   </g>
   <g id="line2d_15">
    <path clip-path="url(#p8760b7cadc)" d="M 73.832727 254.675442 
L 77.145529 259.284999 
L 80.45833 264.250897 
L 83.771132 266.974132 
L 87.083933 269.654867 
L 90.396735 271.717725 
L 93.709536 272.659252 
L 97.022338 273.7152 
L 100.335139 274.695957 
L 103.647941 276.444973 
L 106.960742 275.683252 
L 110.273544 274.146733 
L 113.586345 275.124221 
L 116.899147 276.520164 
L 120.211948 276.37632 
L 123.52475 276.948428 
L 126.837551 277.938992 
L 130.150353 278.226681 
L 133.463154 277.78861 
L 136.775955 277.968415 
L 140.088757 277.785341 
L 143.401558 279.397051 
L 146.71436 279.753392 
L 150.027161 279.936467 
L 153.339963 279.024363 
L 156.652764 278.906672 
L 159.965566 279.547434 
L 163.278367 279.665124 
L 166.591169 279.88416 
L 169.90397 279.27936 
L 173.216772 280.472614 
L 176.529573 279.609548 
L 179.842375 278.991671 
L 183.155176 279.416666 
L 186.467978 279.383974 
L 189.780779 279.877622 
L 193.093581 279.043978 
L 196.406382 278.726867 
L 199.719184 279.766469 
L 203.031985 279.259745 
L 206.344787 279.348013 
L 209.657588 279.363469 
L 212.97039 279.617079 
L 216.283191 279.192674 
L 219.595993 279.86216 
L 222.908794 279.236535 
L 226.221596 279.68793 
L 229.534397 279.852111 
L 232.847199 279.350518 
L 236.16 279.502124 
L 239.472801 280.626132 
L 242.785603 281.414465 
L 246.098404 283.165893 
L 249.411206 283.288081 
L 252.724007 285.27386 
L 256.036809 287.57653 
L 259.34961 289.459938 
L 262.662412 290.470492 
L 265.975213 291.165854 
L 269.288015 291.912812 
L 272.600816 292.858673 
L 275.913618 292.901327 
L 279.226419 293.432135 
L 282.539221 293.81464 
L 285.852022 293.814059 
L 289.164824 293.8048 
L 292.477625 293.724742 
L 295.790427 294.14348 
L 299.103228 294.901111 
L 302.41603 295.148683 
L 305.728831 295.488 
L 309.041633 295.488 
L 312.354434 295.488 
L 315.667236 295.488 
L 318.980037 295.488 
L 322.292839 295.488 
L 325.60564 295.488 
L 328.918442 295.488 
L 332.231243 295.488 
L 335.544045 295.488 
L 338.856846 295.488 
L 342.169647 295.488 
L 345.482449 295.488 
L 348.79525 295.488 
L 352.108052 295.488 
L 355.420853 295.488 
L 358.733655 295.488 
L 362.046456 295.488 
L 365.359258 295.488 
L 368.672059 295.488 
L 371.984861 295.488 
L 375.297662 295.488 
L 378.610464 295.488 
L 381.923265 295.488 
L 385.236067 295.488 
L 388.548868 295.488 
L 391.86167 295.488 
L 395.174471 295.488 
L 398.487273 295.488 
" style="fill:none;stroke:#2ca02c;stroke-linecap:square;stroke-width:1.5;"/>
   </g>
   <g id="line2d_16">
    <path clip-path="url(#p8760b7cadc)" d="M 73.832727 261.870928 
L 77.145529 271.913877 
L 80.45833 277.997838 
L 83.771132 281.920865 
L 87.083933 284.274681 
L 90.396735 285.369859 
L 93.709536 287.22349 
L 97.022338 287.357526 
L 100.335139 288.560588 
L 103.647941 288.616164 
L 106.960742 289.511922 
L 110.273544 289.423654 
L 113.586345 290.551524 
L 116.899147 291.359014 
L 120.211948 291.198824 
L 123.52475 291.022288 
L 126.837551 291.391706 
L 130.150353 291.685933 
L 133.463154 291.65651 
L 136.775955 291.669587 
L 140.088757 291.931122 
L 143.401558 291.623818 
L 146.71436 292.127274 
L 150.027161 292.195926 
L 153.339963 292.271118 
L 156.652764 291.895161 
L 159.965566 292.277656 
L 163.278367 292.280925 
L 166.591169 292.045544 
L 169.90397 292.156696 
L 173.216772 292.110928 
L 176.529573 292.702651 
L 179.842375 293.186491 
L 183.155176 293.045916 
L 186.467978 292.911879 
L 189.780779 292.781111 
L 193.093581 292.689574 
L 196.406382 292.859572 
L 199.719184 293.013224 
L 203.031985 293.186491 
L 206.344787 293.382642 
L 209.657588 292.62942 
L 212.97039 292.965549 
L 216.283191 292.790628 
L 219.595993 292.819369 
L 222.908794 293.015098 
L 226.221596 293.267951 
L 229.534397 293.287139 
L 232.847199 293.442329 
L 236.16 292.999084 
L 239.472801 292.956387 
L 242.785603 293.073017 
L 246.098404 293.040892 
L 249.411206 292.76891 
L 252.724007 293.065152 
L 256.036809 293.515643 
L 259.34961 293.579147 
L 262.662412 294.026725 
L 265.975213 294.194526 
L 269.288015 294.314963 
L 272.600816 294.385805 
L 275.913618 294.568247 
L 279.226419 295.14135 
L 282.539221 295.236027 
L 285.852022 295.307096 
L 289.164824 295.488 
L 292.477625 295.475027 
L 295.790427 295.488 
L 299.103228 295.488 
L 302.41603 295.488 
L 305.728831 295.488 
L 309.041633 295.488 
L 312.354434 295.488 
L 315.667236 295.488 
L 318.980037 295.488 
L 322.292839 295.488 
L 325.60564 295.488 
L 328.918442 295.488 
L 332.231243 295.488 
L 335.544045 295.488 
L 338.856846 295.488 
L 342.169647 295.488 
L 345.482449 295.488 
L 348.79525 295.488 
L 352.108052 295.488 
L 355.420853 295.488 
L 358.733655 295.488 
L 362.046456 295.488 
L 365.359258 295.488 
L 368.672059 295.488 
L 371.984861 295.488 
L 375.297662 295.488 
L 378.610464 295.488 
L 381.923265 295.488 
L 385.236067 295.488 
L 388.548868 295.488 
L 391.86167 295.488 
L 395.174471 295.488 
L 398.487273 295.488 
" style="fill:none;stroke:#d62728;stroke-linecap:square;stroke-width:1.5;"/>
   </g>
   <g id="line2d_17">
    <path clip-path="url(#p8760b7cadc)" d="M 73.832727 267.026439 
L 77.145529 278.445717 
L 80.45833 283.964108 
L 83.771132 287.053492 
L 87.083933 289.171926 
L 90.396735 290.257297 
L 93.709536 290.600562 
L 97.022338 291.806893 
L 100.335139 292.179581 
L 103.647941 292.150158 
L 106.960742 292.258041 
L 110.273544 293.353219 
L 113.586345 293.215914 
L 116.899147 293.412065 
L 120.211948 293.395719 
L 123.52475 293.689946 
L 126.837551 293.434949 
L 130.150353 293.801098 
L 133.463154 293.863213 
L 136.775955 294.03648 
L 140.088757 294.19667 
L 143.401558 294.082249 
L 146.71436 294.311092 
L 150.027161 294.304554 
L 153.339963 294.445129 
L 156.652764 294.592242 
L 159.965566 294.2784 
L 163.278367 294.585704 
L 166.591169 294.376476 
L 169.90397 294.794932 
L 173.216772 294.765509 
L 176.529573 294.768778 
L 179.842375 294.48109 
L 183.155176 294.526858 
L 186.467978 294.644549 
L 189.780779 294.503974 
L 193.093581 294.592242 
L 196.406382 294.72301 
L 199.719184 294.860316 
L 203.031985 295.030314 
L 206.344787 294.857046 
L 209.657588 294.860023 
L 212.97039 294.918755 
L 216.283191 295.045438 
L 219.595993 294.964029 
L 222.908794 294.955265 
L 226.221596 295.132415 
L 229.534397 295.17155 
L 232.847199 295.121039 
L 236.16 295.143892 
L 239.472801 295.04856 
L 242.785603 295.032821 
L 246.098404 295.052548 
L 249.411206 295.312574 
L 252.724007 295.34305 
L 256.036809 295.285209 
L 259.34961 295.424821 
L 262.662412 295.234953 
L 265.975213 295.438832 
L 269.288015 295.344846 
L 272.600816 295.443632 
L 275.913618 295.443298 
L 279.226419 295.468751 
L 282.539221 295.488 
L 285.852022 295.488 
L 289.164824 295.47504 
L 292.477625 295.488 
L 295.790427 295.488 
L 299.103228 295.488 
L 302.41603 295.488 
L 305.728831 295.481422 
L 309.041633 295.488 
L 312.354434 295.488 
L 315.667236 295.488 
L 318.980037 295.488 
L 322.292839 295.488 
L 325.60564 295.488 
L 328.918442 295.488 
L 332.231243 295.488 
L 335.544045 295.488 
L 338.856846 295.488 
L 342.169647 295.488 
L 345.482449 295.488 
L 348.79525 295.488 
L 352.108052 295.488 
L 355.420853 295.488 
L 358.733655 295.488 
L 362.046456 295.488 
L 365.359258 295.488 
L 368.672059 295.488 
L 371.984861 295.488 
L 375.297662 295.488 
L 378.610464 295.488 
L 381.923265 295.488 
L 385.236067 295.488 
L 388.548868 295.488 
L 391.86167 295.488 
L 395.174471 295.488 
L 398.487273 295.488 
" style="fill:none;stroke:#9467bd;stroke-linecap:square;stroke-width:1.5;"/>
   </g>
   <g id="line2d_18">
    <path clip-path="url(#p8760b7cadc)" d="M 73.832727 271.070426 
L 77.145529 282.855853 
L 80.45833 287.413103 
L 83.771132 289.740765 
L 87.083933 291.434205 
L 90.396735 291.963814 
L 93.709536 292.379001 
L 97.022338 293.179952 
L 100.335139 293.372835 
L 103.647941 293.408796 
L 106.960742 293.71283 
L 110.273544 294.023403 
L 113.586345 294.150902 
L 116.899147 294.294746 
L 120.211948 294.441859 
L 123.52475 294.533397 
L 126.837551 294.347053 
L 130.150353 294.72301 
L 133.463154 294.605319 
L 136.775955 294.687049 
L 140.088757 294.644549 
L 143.401558 294.749163 
L 146.71436 294.791663 
L 150.027161 294.811278 
L 153.339963 294.879931 
L 156.652764 294.8832 
L 159.965566 295.079351 
L 163.278367 294.974737 
L 166.591169 295.095697 
L 169.90397 295.079351 
L 173.216772 295.105505 
L 176.529573 295.059736 
L 179.842375 295.007429 
L 183.155176 295.08589 
L 186.467978 295.017237 
L 189.780779 295.076082 
L 193.093581 295.128389 
L 196.406382 295.105505 
L 199.719184 295.167619 
L 203.031985 295.154543 
L 206.344787 295.063005 
L 209.657588 295.088984 
L 212.97039 295.108509 
L 216.283191 295.084785 
L 219.595993 295.082875 
L 222.908794 295.13874 
L 226.221596 295.108576 
L 229.534397 295.124876 
L 232.847199 295.200544 
L 236.16 294.965298 
L 239.472801 295.184658 
L 242.785603 295.261592 
L 246.098404 295.13884 
L 249.411206 295.173836 
L 252.724007 295.205363 
L 256.036809 295.357012 
L 259.34961 295.371503 
L 262.662412 295.236305 
L 265.975213 295.193799 
L 269.288015 295.257075 
L 272.600816 295.247285 
L 275.913618 295.238911 
L 279.226419 295.250223 
L 282.539221 295.248949 
L 285.852022 295.248866 
L 289.164824 295.267909 
L 292.477625 295.4556 
L 295.790427 295.488 
L 299.103228 295.488 
L 302.41603 295.488 
L 305.728831 295.488 
L 309.041633 295.488 
L 312.354434 295.488 
L 315.667236 295.488 
L 318.980037 295.488 
L 322.292839 295.488 
L 325.60564 295.488 
L 328.918442 295.488 
L 332.231243 295.488 
L 335.544045 295.488 
L 338.856846 295.488 
L 342.169647 295.488 
L 345.482449 295.488 
L 348.79525 295.488 
L 352.108052 295.488 
L 355.420853 295.488 
L 358.733655 295.488 
L 362.046456 295.488 
L 365.359258 295.488 
L 368.672059 295.488 
L 371.984861 295.488 
L 375.297662 295.488 
L 378.610464 295.488 
L 381.923265 295.488 
L 385.236067 295.488 
L 388.548868 295.488 
L 391.86167 295.488 
L 395.174471 295.488 
L 398.487273 295.488 
" style="fill:none;stroke:#8c564b;stroke-linecap:square;stroke-width:1.5;"/>
   </g>
   <g id="patch_3">
    <path d="M 57.6 307.584 
L 57.6 41.472 
" style="fill:none;stroke:#000000;stroke-linecap:square;stroke-linejoin:miter;stroke-width:0.8;"/>
   </g>
   <g id="patch_4">
    <path d="M 414.72 307.584 
L 414.72 41.472 
" style="fill:none;stroke:#000000;stroke-linecap:square;stroke-linejoin:miter;stroke-width:0.8;"/>
   </g>
   <g id="patch_5">
    <path d="M 57.6 307.584 
L 414.72 307.584 
" style="fill:none;stroke:#000000;stroke-linecap:square;stroke-linejoin:miter;stroke-width:0.8;"/>
   </g>
   <g id="patch_6">
    <path d="M 57.6 41.472 
L 414.72 41.472 
" style="fill:none;stroke:#000000;stroke-linecap:square;stroke-linejoin:miter;stroke-width:0.8;"/>
   </g>
   <g id="text_15">
    <!-- LUCB -->
    <defs>
     <path d="M 9.8125 72.90625 
L 19.671875 72.90625 
L 19.671875 8.296875 
L 55.171875 8.296875 
L 55.171875 0 
L 9.8125 0 
z
" id="DejaVuSans-4c"/>
     <path d="M 8.6875 72.90625 
L 18.609375 72.90625 
L 18.609375 28.609375 
Q 18.609375 16.890625 22.84375 11.734375 
Q 27.09375 6.59375 36.625 6.59375 
Q 46.09375 6.59375 50.34375 11.734375 
Q 54.59375 16.890625 54.59375 28.609375 
L 54.59375 72.90625 
L 64.5 72.90625 
L 64.5 27.390625 
Q 64.5 13.140625 57.4375 5.859375 
Q 50.390625 -1.421875 36.625 -1.421875 
Q 22.796875 -1.421875 15.734375 5.859375 
Q 8.6875 13.140625 8.6875 27.390625 
z
" id="DejaVuSans-55"/>
     <path d="M 64.40625 67.28125 
L 64.40625 56.890625 
Q 59.421875 61.53125 53.78125 63.8125 
Q 48.140625 66.109375 41.796875 66.109375 
Q 29.296875 66.109375 22.65625 58.46875 
Q 16.015625 50.828125 16.015625 36.375 
Q 16.015625 21.96875 22.65625 14.328125 
Q 29.296875 6.6875 41.796875 6.6875 
Q 48.140625 6.6875 53.78125 8.984375 
Q 59.421875 11.28125 64.40625 15.921875 
L 64.40625 5.609375 
Q 59.234375 2.09375 53.4375 0.328125 
Q 47.65625 -1.421875 41.21875 -1.421875 
Q 24.65625 -1.421875 15.125 8.703125 
Q 5.609375 18.84375 5.609375 36.375 
Q 5.609375 53.953125 15.125 64.078125 
Q 24.65625 74.21875 41.21875 74.21875 
Q 47.75 74.21875 53.53125 72.484375 
Q 59.328125 70.75 64.40625 67.28125 
z
" id="DejaVuSans-43"/>
     <path d="M 19.671875 34.8125 
L 19.671875 8.109375 
L 35.5 8.109375 
Q 43.453125 8.109375 47.28125 11.40625 
Q 51.125 14.703125 51.125 21.484375 
Q 51.125 28.328125 47.28125 31.5625 
Q 43.453125 34.8125 35.5 34.8125 
z
M 19.671875 64.796875 
L 19.671875 42.828125 
L 34.28125 42.828125 
Q 41.5 42.828125 45.03125 45.53125 
Q 48.578125 48.25 48.578125 53.8125 
Q 48.578125 59.328125 45.03125 62.0625 
Q 41.5 64.796875 34.28125 64.796875 
z
M 9.8125 72.90625 
L 35.015625 72.90625 
Q 46.296875 72.90625 52.390625 68.21875 
Q 58.5 63.53125 58.5 54.890625 
Q 58.5 48.1875 55.375 44.234375 
Q 52.25 40.28125 46.1875 39.3125 
Q 53.46875 37.75 57.5 32.78125 
Q 61.53125 27.828125 61.53125 20.40625 
Q 61.53125 10.640625 54.890625 5.3125 
Q 48.25 0 35.984375 0 
L 9.8125 0 
z
" id="DejaVuSans-42"/>
    </defs>
    <g transform="translate(220.124063 35.472)scale(0.12 -0.12)">
     <use xlink:href="#DejaVuSans-4c"/>
     <use x="55.634766" xlink:href="#DejaVuSans-55"/>
     <use x="128.828125" xlink:href="#DejaVuSans-43"/>
     <use x="198.652344" xlink:href="#DejaVuSans-42"/>
    </g>
   </g>
   <g id="legend_1">
    <g id="patch_7">
     <path d="M 64.6 137.54075 
L 136.960938 137.54075 
Q 138.960938 137.54075 138.960938 135.54075 
L 138.960938 48.472 
Q 138.960938 46.472 136.960938 46.472 
L 64.6 46.472 
Q 62.6 46.472 62.6 48.472 
L 62.6 135.54075 
Q 62.6 137.54075 64.6 137.54075 
z
" style="fill:#ffffff;opacity:0.8;stroke:#cccccc;stroke-linejoin:miter;"/>
    </g>
    <g id="line2d_19">
     <path d="M 66.6 54.570438 
L 86.6 54.570438 
" style="fill:none;stroke:#1f77b4;stroke-linecap:square;stroke-width:1.5;"/>
    </g>
    <g id="line2d_20"/>
    <g id="text_16">
     <!-- mu=1.0 -->
     <defs>
      <path d="M 10.59375 45.40625 
L 73.1875 45.40625 
L 73.1875 37.203125 
L 10.59375 37.203125 
z
M 10.59375 25.484375 
L 73.1875 25.484375 
L 73.1875 17.1875 
L 10.59375 17.1875 
z
" id="DejaVuSans-3d"/>
     </defs>
     <g transform="translate(94.6 58.070438)scale(0.1 -0.1)">
      <use xlink:href="#DejaVuSans-6d"/>
      <use x="97.412109" xlink:href="#DejaVuSans-75"/>
      <use x="160.791016" xlink:href="#DejaVuSans-3d"/>
      <use x="244.580078" xlink:href="#DejaVuSans-31"/>
      <use x="308.203125" xlink:href="#DejaVuSans-2e"/>
      <use x="339.990234" xlink:href="#DejaVuSans-30"/>
     </g>
    </g>
    <g id="line2d_21">
     <path d="M 66.6 69.248563 
L 86.6 69.248563 
" style="fill:none;stroke:#ff7f0e;stroke-linecap:square;stroke-width:1.5;"/>
    </g>
    <g id="line2d_22"/>
    <g id="text_17">
     <!-- mu=0.8 -->
     <g transform="translate(94.6 72.748563)scale(0.1 -0.1)">
      <use xlink:href="#DejaVuSans-6d"/>
      <use x="97.412109" xlink:href="#DejaVuSans-75"/>
      <use x="160.791016" xlink:href="#DejaVuSans-3d"/>
      <use x="244.580078" xlink:href="#DejaVuSans-30"/>
      <use x="308.203125" xlink:href="#DejaVuSans-2e"/>
      <use x="339.990234" xlink:href="#DejaVuSans-38"/>
     </g>
    </g>
    <g id="line2d_23">
     <path d="M 66.6 83.926688 
L 86.6 83.926688 
" style="fill:none;stroke:#2ca02c;stroke-linecap:square;stroke-width:1.5;"/>
    </g>
    <g id="line2d_24"/>
    <g id="text_18">
     <!-- mu=0.6 -->
     <g transform="translate(94.6 87.426688)scale(0.1 -0.1)">
      <use xlink:href="#DejaVuSans-6d"/>
      <use x="97.412109" xlink:href="#DejaVuSans-75"/>
      <use x="160.791016" xlink:href="#DejaVuSans-3d"/>
      <use x="244.580078" xlink:href="#DejaVuSans-30"/>
      <use x="308.203125" xlink:href="#DejaVuSans-2e"/>
      <use x="339.990234" xlink:href="#DejaVuSans-36"/>
     </g>
    </g>
    <g id="line2d_25">
     <path d="M 66.6 98.604813 
L 86.6 98.604813 
" style="fill:none;stroke:#d62728;stroke-linecap:square;stroke-width:1.5;"/>
    </g>
    <g id="line2d_26"/>
    <g id="text_19">
     <!-- mu=0.4 -->
     <g transform="translate(94.6 102.104813)scale(0.1 -0.1)">
      <use xlink:href="#DejaVuSans-6d"/>
      <use x="97.412109" xlink:href="#DejaVuSans-75"/>
      <use x="160.791016" xlink:href="#DejaVuSans-3d"/>
      <use x="244.580078" xlink:href="#DejaVuSans-30"/>
      <use x="308.203125" xlink:href="#DejaVuSans-2e"/>
      <use x="339.990234" xlink:href="#DejaVuSans-34"/>
     </g>
    </g>
    <g id="line2d_27">
     <path d="M 66.6 113.282938 
L 86.6 113.282938 
" style="fill:none;stroke:#9467bd;stroke-linecap:square;stroke-width:1.5;"/>
    </g>
    <g id="line2d_28"/>
    <g id="text_20">
     <!-- mu=0.2 -->
     <g transform="translate(94.6 116.782938)scale(0.1 -0.1)">
      <use xlink:href="#DejaVuSans-6d"/>
      <use x="97.412109" xlink:href="#DejaVuSans-75"/>
      <use x="160.791016" xlink:href="#DejaVuSans-3d"/>
      <use x="244.580078" xlink:href="#DejaVuSans-30"/>
      <use x="308.203125" xlink:href="#DejaVuSans-2e"/>
      <use x="339.990234" xlink:href="#DejaVuSans-32"/>
     </g>
    </g>
    <g id="line2d_29">
     <path d="M 66.6 127.961063 
L 86.6 127.961063 
" style="fill:none;stroke:#8c564b;stroke-linecap:square;stroke-width:1.5;"/>
    </g>
    <g id="line2d_30"/>
    <g id="text_21">
     <!-- mu=0 -->
     <g transform="translate(94.6 131.461063)scale(0.1 -0.1)">
      <use xlink:href="#DejaVuSans-6d"/>
      <use x="97.412109" xlink:href="#DejaVuSans-75"/>
      <use x="160.791016" xlink:href="#DejaVuSans-3d"/>
      <use x="244.580078" xlink:href="#DejaVuSans-30"/>
     </g>
    </g>
   </g>
  </g>
 </g>
 <defs>
  <clipPath id="p8760b7cadc">
   <rect height="266.112" width="357.12" x="57.6" y="41.472"/>
  </clipPath>
 </defs>
</svg>
